<?xml version="1.0" encoding="utf-8"?>
<!-- Generator: Adobe Illustrator 19.0.0, SVG Export Plug-In . SVG Version: 6.00 Build 0)  -->
<svg version="1.1" id="Capa_1" xmlns="http://www.w3.org/2000/svg" xmlns:xlink="http://www.w3.org/1999/xlink" x="0px" y="0px"
	 viewBox="0 0 259 87.3" style="enable-background:new 0 0 259 87.3;" xml:space="preserve">
<g id="XMLID_2_">
	<g id="XMLID_198_">
		<g id="XMLID_946_">
			<path id="XMLID_948_" d="M117,65.8c-4.2,0-6.4-2.5-6.4-6.8V44.8c0-4.4,2.2-6.8,6.4-6.8c1.6,0,2.9,0.4,3.9,1l25.2,5.5L117.2,6.1
				h-7.4v2.6l-0.4-0.4c-1.1-1.2-3-2.5-6.4-2.5c-5.4,0-8.6,3.4-8.6,9.1V29c0,2.9,0.8,5.2,2.4,6.8l1.8,1.8v28.8l27,11.6l-6.6-12.4
				C118.4,65.7,117.7,65.8,117,65.8z M112,8.3h4.3v23.3h7v3.9H112V8.3z M105.2,65.5h-4.3V38.3h4.3V65.5z M109.4,17.5h-4v-2.9
				c0-1.9-0.9-2.7-2.2-2.7c-1.4,0-2.2,0.7-2.2,2.7v14.7c0,1.9,0.9,2.6,2.2,2.6c1.4,0,2.2-0.7,2.2-2.6v-3.9h4V29
				c0,4.4-2.2,6.8-6.4,6.8c-4.2,0-6.4-2.5-6.4-6.8V14.9c0-4.4,2.2-6.8,6.4-6.8c4.2,0,6.4,2.5,6.4,6.8V17.5z"/>
			<path id="XMLID_947_" d="M122.3,40.6c0.7,1.1,1,2.5,1,4.3v2.6h-4v-2.9c0-1.9-0.9-2.7-2.2-2.7c-1.4,0-2.2,0.7-2.2,2.7v14.7
				c0,1.9,0.9,2.6,2.2,2.6c1.4,0,2.2-0.7,2.2-2.6v-3.9h4V59c0,3-1.1,5.2-3.1,6.2l6.9,12.9l19.2-32.2L122.3,40.6z"/>
		</g>
		<g id="XMLID_199_">
			<g id="XMLID_2489_">
				<g id="XMLID_2826_">
					<path id="XMLID_2830_" d="M156.2,26.1c0,0.6-0.2,1-0.5,1.3c-0.4,0.3-0.8,0.5-1.4,0.5c-0.6,0-1.1-0.2-1.4-0.5
						c-0.4-0.3-0.5-0.8-0.5-1.4v-3.3c0-0.6,0.2-1,0.5-1.3c0.4-0.3,0.8-0.5,1.4-0.5c0.6,0,1.1,0.2,1.4,0.5c0.4,0.3,0.5,0.8,0.5,1.3
						c0,0.1,0,0.1-0.1,0.1l-0.5,0c-0.1,0-0.1,0-0.1-0.1c0-0.2-0.1-0.4-0.2-0.6c-0.1-0.2-0.2-0.3-0.3-0.4c-0.1-0.1-0.3-0.1-0.4-0.2
						c-0.1,0-0.3,0-0.4,0c-0.1,0-0.3,0-0.4,0c-0.1,0-0.3,0.1-0.4,0.2c-0.1,0.1-0.2,0.2-0.3,0.4c-0.1,0.2-0.1,0.4-0.1,0.7v3.1
						c0,0.3,0,0.5,0.1,0.7c0.1,0.2,0.2,0.3,0.3,0.4c0.1,0.1,0.3,0.2,0.4,0.2c0.1,0,0.3,0,0.4,0c0.1,0,0.2,0,0.4,0
						c0.1,0,0.3-0.1,0.4-0.2c0.1-0.1,0.2-0.2,0.3-0.3c0.1-0.1,0.1-0.3,0.2-0.6c0-0.1,0-0.1,0.1-0.1l0.5,0
						C156.2,26,156.2,26,156.2,26.1z"/>
					<path id="XMLID_2827_" d="M154.3,28c-0.6,0-1.1-0.2-1.5-0.5c-0.4-0.3-0.6-0.8-0.6-1.5v-3.3c0-0.6,0.2-1.1,0.6-1.4
						c0.4-0.3,0.9-0.5,1.5-0.5c0.6,0,1.1,0.2,1.5,0.5c0.4,0.3,0.6,0.8,0.6,1.4c0,0.2-0.1,0.2-0.2,0.2l-0.5,0h0
						c-0.1,0-0.2-0.1-0.2-0.2c0-0.2-0.1-0.4-0.1-0.5c-0.1-0.1-0.2-0.2-0.3-0.3c-0.1-0.1-0.2-0.1-0.4-0.2c-0.3-0.1-0.5-0.1-0.7,0
						c-0.1,0-0.3,0.1-0.4,0.2c-0.1,0.1-0.2,0.2-0.3,0.3c-0.1,0.1-0.1,0.3-0.1,0.6v3.1c0,0.3,0,0.5,0.1,0.6c0.1,0.1,0.2,0.3,0.3,0.3
						c0.1,0.1,0.2,0.1,0.4,0.2c0.3,0.1,0.4,0.1,0.7,0c0.1,0,0.2-0.1,0.4-0.1c0.1-0.1,0.2-0.2,0.3-0.3c0.1-0.1,0.1-0.3,0.1-0.5
						c0-0.2,0.1-0.2,0.2-0.2l0.5,0h0c0.1,0,0.2,0.1,0.2,0.2v0c0,0.6-0.2,1.1-0.6,1.4C155.4,27.8,154.9,28,154.3,28z M154.3,21
						c-0.6,0-1,0.2-1.4,0.4c-0.3,0.3-0.5,0.7-0.5,1.3V26c0,0.6,0.2,1,0.5,1.3c0.3,0.3,0.8,0.5,1.4,0.5c0.6,0,1-0.1,1.3-0.4
						c0.3-0.3,0.5-0.7,0.5-1.2c0,0,0,0,0,0l-0.5,0l0,0c0,0.3-0.1,0.5-0.2,0.6c-0.1,0.2-0.2,0.3-0.4,0.4c-0.1,0.1-0.3,0.1-0.4,0.2
						c-0.3,0.1-0.5,0.1-0.8,0c-0.2,0-0.3-0.1-0.5-0.2c-0.1-0.1-0.3-0.2-0.4-0.4c-0.1-0.2-0.1-0.4-0.1-0.7v-3.1c0-0.3,0-0.5,0.1-0.7
						c0.1-0.2,0.2-0.3,0.4-0.4c0.1-0.1,0.3-0.2,0.5-0.2c0.3-0.1,0.5-0.1,0.8,0c0.2,0,0.3,0.1,0.4,0.2c0.1,0.1,0.3,0.2,0.4,0.4
						c0.1,0.2,0.2,0.4,0.2,0.7l0.5,0c0-0.5-0.2-0.9-0.5-1.2C155.3,21.2,154.8,21,154.3,21z"/>
				</g>
				<g id="XMLID_2817_">
					<path id="XMLID_2823_" d="M163.4,26c0,0.6-0.2,1-0.5,1.4c-0.4,0.3-0.8,0.5-1.4,0.5c-0.6,0-1.1-0.2-1.4-0.5
						c-0.4-0.3-0.5-0.8-0.5-1.4v-3.3c0-0.6,0.2-1,0.5-1.3c0.4-0.3,0.8-0.5,1.4-0.5c0.6,0,1.1,0.2,1.4,0.5c0.4,0.3,0.5,0.8,0.5,1.3
						V26z M162.7,22.9c0-0.3,0-0.5-0.1-0.7c-0.1-0.2-0.2-0.3-0.3-0.4c-0.1-0.1-0.3-0.2-0.4-0.2c-0.1,0-0.3,0-0.4,0
						c-0.1,0-0.3,0-0.4,0c-0.1,0-0.3,0.1-0.4,0.2c-0.1,0.1-0.2,0.2-0.3,0.4c-0.1,0.2-0.1,0.4-0.1,0.7v3.1c0,0.3,0,0.5,0.1,0.7
						c0.1,0.2,0.2,0.3,0.3,0.4c0.1,0.1,0.3,0.2,0.4,0.2c0.1,0,0.3,0,0.4,0c0.1,0,0.2,0,0.4,0c0.1,0,0.3-0.1,0.4-0.2
						c0.1-0.1,0.2-0.2,0.3-0.4c0.1-0.2,0.1-0.4,0.1-0.7V22.9z"/>
					<path id="XMLID_2818_" d="M161.4,28c-0.6,0-1.1-0.2-1.5-0.5c-0.4-0.3-0.6-0.8-0.6-1.5v-3.3c0-0.6,0.2-1.1,0.6-1.4
						c0.4-0.3,0.9-0.5,1.5-0.5c0.6,0,1.1,0.2,1.5,0.5c0.4,0.3,0.6,0.8,0.6,1.4V26c0,0.6-0.2,1.1-0.6,1.5
						C162.6,27.8,162.1,28,161.4,28z M161.4,21c-0.6,0-1,0.2-1.4,0.4c-0.3,0.3-0.5,0.7-0.5,1.3V26c0,0.6,0.2,1,0.5,1.3
						c0.3,0.3,0.8,0.5,1.4,0.5c0.6,0,1-0.2,1.3-0.5c0.3-0.3,0.5-0.7,0.5-1.3v-3.3c0-0.5-0.2-1-0.5-1.3C162.5,21.2,162,21,161.4,21z
						 M161.4,27.3c-0.1,0-0.3,0-0.4,0c-0.2,0-0.3-0.1-0.5-0.2c-0.1-0.1-0.3-0.2-0.4-0.4c-0.1-0.2-0.1-0.4-0.1-0.7v-3.1
						c0-0.3,0-0.5,0.1-0.7c0.1-0.2,0.2-0.3,0.4-0.4c0.1-0.1,0.3-0.2,0.5-0.2c0.3-0.1,0.5-0.1,0.8,0c0.2,0,0.3,0.1,0.5,0.2
						c0.1,0.1,0.3,0.2,0.4,0.4c0.1,0.2,0.1,0.4,0.1,0.7v3.1c0,0.3,0,0.5-0.1,0.7c-0.1,0.2-0.2,0.3-0.4,0.4c-0.1,0.1-0.3,0.2-0.5,0.2
						C161.7,27.3,161.6,27.3,161.4,27.3z M161.4,21.7c-0.1,0-0.2,0-0.4,0c-0.1,0-0.3,0.1-0.4,0.2c-0.1,0.1-0.2,0.2-0.3,0.3
						c-0.1,0.1-0.1,0.3-0.1,0.6v3.1c0,0.3,0,0.5,0.1,0.6c0.1,0.1,0.2,0.3,0.3,0.3c0.1,0.1,0.2,0.1,0.4,0.2c0.3,0.1,0.5,0.1,0.7,0
						c0.1,0,0.3-0.1,0.4-0.2c0.1-0.1,0.2-0.2,0.3-0.3c0.1-0.1,0.1-0.3,0.1-0.6v-3.1c0-0.3,0-0.5-0.1-0.6c-0.1-0.1-0.2-0.3-0.3-0.3
						c-0.1-0.1-0.2-0.1-0.4-0.2C161.7,21.7,161.5,21.7,161.4,21.7z"/>
				</g>
				<g id="XMLID_2810_">
					<path id="XMLID_2815_" d="M171.1,27.7C171.1,27.7,171.1,27.7,171.1,27.7C171.1,27.8,171.1,27.8,171.1,27.7l-1,0.1
						c0,0-0.1,0-0.1-0.1l-2.2-5.3c0-0.1-0.1-0.2-0.1-0.3c0-0.1-0.1-0.2-0.1-0.3c0-0.1-0.1-0.2-0.1-0.3c0-0.1-0.1-0.2-0.1-0.2
						c0,0.1,0,0.2,0,0.5c0,0.2,0,0.5,0,0.7v5.1c0,0.1,0,0.1,0,0.1c0,0-0.1,0-0.1,0H167c-0.1,0-0.1,0-0.1,0c0,0,0,0,0-0.1V21
						c0,0,0,0,0,0c0,0,0,0,0.1,0h0.9c0,0,0.1,0,0.1,0.1l2.1,5c0.1,0.1,0.1,0.3,0.2,0.4c0,0.1,0.1,0.2,0.1,0.3c0,0.1,0.1,0.2,0.1,0.3
						c0,0.1,0.1,0.2,0.1,0.3c0-0.3,0-0.6,0-0.8c0-0.2,0-0.4,0-0.5v-5c0-0.1,0-0.1,0-0.1c0,0,0.1,0,0.1,0h0.4c0.1,0,0.1,0,0.1,0
						c0,0,0,0,0,0.1V27.7z"/>
					<path id="XMLID_2811_" d="M170.7,28.2l-0.1-0.3h-0.4c-0.1,0-0.2-0.1-0.2-0.1l-2.2-5.3c0-0.1-0.1-0.1-0.1-0.2c0,0.1,0,0.2,0,0.3
						v5.1c0,0.1,0,0.2-0.1,0.2c0,0-0.1,0-0.2,0H167c-0.1,0-0.1,0-0.2,0c-0.1,0-0.1-0.1-0.1-0.2V21c0,0,0-0.1,0-0.1
						c0.1-0.1,0.1-0.1,0.2-0.1h0.9c0,0,0.1,0,0.2,0.1l2.1,5c0.1,0.1,0.1,0.3,0.2,0.4c0,0,0,0.1,0,0.1c0-0.1,0-0.2,0-0.3v-5
						c0-0.1,0-0.2,0.1-0.2c0,0,0.1,0,0.2,0h0.4c0.1,0,0.1,0,0.2,0c0.1,0,0.1,0.1,0.1,0.2v6.6c0,0,0,0.1,0,0.1c0,0.1-0.1,0.1-0.2,0.1
						h-0.4L170.7,28.2z M167.6,21.3c0,0,0,0.1,0.1,0.2c0,0.1,0.1,0.2,0.1,0.3c0,0.1,0.1,0.2,0.1,0.3c0,0.1,0.1,0.2,0.1,0.3l2.2,5.3
						l0.4,0l-0.1-0.3c0-0.1-0.1-0.2-0.1-0.3c0-0.1-0.1-0.2-0.1-0.3c0-0.1-0.1-0.2-0.1-0.3c0-0.1-0.1-0.2-0.2-0.4l-2.1-4.9l-0.9,0
						l0,6.6v0c0,0,0,0,0,0h0.4h0v0v-5.1c0-0.2,0-0.5,0-0.7c0-0.2,0-0.4,0-0.5L167.6,21.3z M170.6,21.1L170.6,21.1v5
						c0,0.1,0,0.3,0,0.5c0,0.2,0,0.5,0,0.8l0,0.3l0.4,0v-6.6v0h0H170.6L170.6,21.1z"/>
				</g>
				<g id="XMLID_2804_">
					<path id="XMLID_2808_" d="M178.5,26.8c0,0,0,0.1,0,0.1c0,0,0,0.1-0.1,0.1c-0.3,0.3-0.6,0.6-0.9,0.7c-0.3,0.1-0.7,0.2-1,0.2
						c-0.6,0-1.1-0.2-1.4-0.5c-0.4-0.3-0.5-0.8-0.5-1.4v-3.3c0-0.6,0.2-1,0.5-1.3c0.4-0.3,0.8-0.5,1.4-0.5c0.4,0,0.7,0.1,1,0.2
						c0.3,0.1,0.5,0.3,0.7,0.6c0,0,0,0.1,0,0.1l-0.4,0.3c0,0-0.1,0-0.1,0c0,0,0,0-0.1,0c-0.1-0.1-0.2-0.2-0.3-0.3
						c-0.1-0.1-0.2-0.1-0.3-0.2c-0.1,0-0.2-0.1-0.3-0.1c-0.1,0-0.2,0-0.4,0c-0.1,0-0.3,0-0.4,0c-0.1,0-0.3,0.1-0.4,0.2
						c-0.1,0.1-0.2,0.2-0.3,0.4c-0.1,0.2-0.1,0.4-0.1,0.7v3.1c0,0.3,0,0.5,0.1,0.7c0.1,0.2,0.2,0.3,0.3,0.4c0.1,0.1,0.3,0.2,0.4,0.2
						c0.1,0,0.3,0,0.4,0c0.2,0,0.5,0,0.7-0.1c0.2-0.1,0.4-0.2,0.6-0.4v-1.8h-1.1c-0.1,0-0.1,0-0.1,0c0,0,0,0,0-0.1v-0.4
						c0-0.1,0-0.1,0-0.1c0,0,0.1,0,0.1,0h1.7c0.1,0,0.1,0,0.1,0c0,0,0,0,0,0.1V26.8z"/>
					<path id="XMLID_2805_" d="M176.5,28c-0.6,0-1.1-0.2-1.5-0.5c-0.4-0.3-0.6-0.8-0.6-1.5v-3.3c0-0.6,0.2-1.1,0.6-1.4
						c0.4-0.3,0.9-0.5,1.5-0.5c0.4,0,0.8,0.1,1,0.2c0.3,0.1,0.5,0.4,0.8,0.6c0,0.1,0.1,0.1,0.1,0.2c0,0,0,0.1-0.1,0.1l-0.4,0.3
						c-0.1,0.1-0.2,0.1-0.3,0c-0.1-0.1-0.2-0.2-0.3-0.3c-0.1-0.1-0.2-0.1-0.2-0.2c-0.1,0-0.2-0.1-0.3-0.1c-0.2,0-0.4-0.1-0.7,0
						c-0.1,0-0.3,0.1-0.4,0.2c-0.1,0.1-0.2,0.2-0.3,0.3c-0.1,0.1-0.1,0.3-0.1,0.6v3.1c0,0.3,0,0.5,0.1,0.6c0.1,0.1,0.2,0.3,0.3,0.3
						c0.1,0.1,0.2,0.1,0.4,0.2c0.2,0,0.3,0,0.4,0c0.2,0,0.4,0,0.6-0.1c0.2-0.1,0.4-0.2,0.5-0.4v-1.7h-1c-0.1,0-0.1,0-0.2,0
						c-0.1,0-0.1-0.1-0.1-0.2v-0.4c0-0.1,0-0.2,0.1-0.2c0,0,0.1,0,0.2,0h1.7c0.1,0,0.1,0,0.2,0c0.1,0.1,0.1,0.1,0.1,0.2v2.5
						c0,0.1,0,0.1,0,0.1c0,0,0,0.1-0.1,0.1c-0.3,0.3-0.6,0.6-1,0.7C177.2,27.9,176.8,28,176.5,28z M176.5,21c-0.6,0-1,0.2-1.4,0.4
						c-0.3,0.3-0.5,0.7-0.5,1.3V26c0,0.6,0.2,1,0.5,1.3c0.3,0.3,0.8,0.5,1.4,0.5c0.3,0,0.6-0.1,0.9-0.2c0.3-0.1,0.6-0.4,0.9-0.7
						c0,0,0,0,0,0c0,0,0,0,0-0.1v-2.5v0c0,0,0,0,0,0h-1.7h0v0v0.4c0,0,0,0,0,0l0,0h1.3v2l0,0c-0.2,0.2-0.4,0.4-0.6,0.5
						c-0.2,0.1-0.5,0.1-0.7,0.1h0c-0.1,0-0.3,0-0.4,0c-0.2,0-0.3-0.1-0.5-0.2c-0.1-0.1-0.3-0.2-0.4-0.4c-0.1-0.2-0.1-0.4-0.1-0.7
						v-3.1c0-0.3,0-0.5,0.1-0.7c0.1-0.2,0.2-0.3,0.4-0.4c0.1-0.1,0.3-0.2,0.5-0.2c0.3-0.1,0.6-0.1,0.8,0c0.1,0,0.2,0.1,0.3,0.1
						c0.1,0,0.2,0.1,0.3,0.2c0.1,0.1,0.2,0.2,0.3,0.3l0.3-0.3c-0.2-0.2-0.4-0.4-0.7-0.5C177.2,21.1,176.9,21,176.5,21z"/>
				</g>
				<g id="XMLID_2795_">
					<path id="XMLID_2801_" d="M185.9,27.7c0,0.1,0,0.1-0.1,0.1h-0.5c-0.1,0-0.1,0-0.1,0c0,0,0,0-0.1-0.1l-1.5-3h-1v3
						c0,0.1,0,0.1,0,0.1c0,0-0.1,0-0.1,0H182c-0.1,0-0.1,0-0.1,0c0,0,0,0,0-0.1v-6.6c0-0.1,0-0.1,0-0.1c0,0,0.1,0,0.1,0h2.3
						c0.2,0,0.4,0,0.6,0.1c0.2,0.1,0.3,0.2,0.5,0.3c0.1,0.1,0.2,0.3,0.3,0.5c0.1,0.2,0.1,0.4,0.1,0.7v0.6c0,0.3,0,0.5-0.1,0.7
						c-0.1,0.2-0.2,0.4-0.3,0.5c-0.1,0.1-0.3,0.2-0.5,0.3c-0.2,0.1-0.4,0.1-0.5,0.1L185.9,27.7z M185.1,22.6c0-0.3-0.1-0.5-0.2-0.7
						c-0.2-0.1-0.4-0.2-0.7-0.2h-1.6v2.3h1.6c0.3,0,0.5-0.1,0.7-0.2c0.2-0.1,0.2-0.4,0.2-0.7V22.6z"/>
					<path id="XMLID_2796_" d="M185.8,27.9h-0.5c-0.1,0-0.2,0-0.2,0c0,0-0.1-0.1-0.1-0.1l-1.5-3h-0.8v2.9c0,0.1,0,0.2-0.1,0.2
						c0,0-0.1,0-0.2,0H182c-0.1,0-0.1,0-0.2,0c-0.1,0-0.1-0.1-0.1-0.2v-6.6c0-0.1,0-0.2,0.1-0.2c0,0,0.1,0,0.2,0h2.3
						c0.2,0,0.4,0,0.6,0.1c0.2,0.1,0.4,0.2,0.5,0.3c0.1,0.1,0.3,0.3,0.3,0.5c0.1,0.2,0.1,0.4,0.1,0.7v0.6c0,0.3,0,0.5-0.1,0.7
						c-0.1,0.2-0.2,0.4-0.3,0.5c-0.1,0.1-0.3,0.2-0.5,0.3c-0.1,0-0.3,0.1-0.4,0.1l1.5,2.9c0.1,0.1,0,0.2,0,0.2
						C186,27.9,185.9,27.9,185.8,27.9z M185.2,27.7C185.2,27.7,185.3,27.7,185.2,27.7l0.5,0l-1.6-3.1h0.2c0.2,0,0.3,0,0.5-0.1
						c0.2-0.1,0.3-0.1,0.4-0.2c0.1-0.1,0.2-0.3,0.3-0.4c0.1-0.2,0.1-0.4,0.1-0.6v-0.6c0-0.2,0-0.5-0.1-0.6c-0.1-0.2-0.2-0.3-0.3-0.4
						c-0.1-0.1-0.3-0.2-0.4-0.2c-0.2-0.1-0.3-0.1-0.5-0.1H182h0v0v6.6v0h0h0.4h0v0v-3.1h1.2L185.2,27.7
						C185.2,27.6,185.2,27.7,185.2,27.7L185.2,27.7z M184.2,24.1h-1.7v-2.5h1.7c0.3,0,0.6,0.1,0.7,0.2c0.2,0.2,0.3,0.4,0.3,0.8V23
						c0,0.3-0.1,0.6-0.3,0.8C184.7,24,184.5,24.1,184.2,24.1z M182.7,23.8h1.5c0.3,0,0.4-0.1,0.6-0.2c0.1-0.1,0.2-0.3,0.2-0.6v-0.5
						c0-0.3-0.1-0.5-0.2-0.6c-0.1-0.1-0.3-0.2-0.6-0.2h-1.5V23.8z"/>
				</g>
				<g id="XMLID_2789_">
					<path id="XMLID_2793_" d="M192.4,27.7c0,0.1,0,0.1,0,0.1c0,0-0.1,0-0.1,0h-3.2c-0.1,0-0.1,0-0.1,0c0,0,0,0,0-0.1v-6.6
						c0-0.1,0-0.1,0-0.1c0,0,0.1,0,0.1,0h3.1c0.1,0,0.1,0,0.1,0c0,0,0,0,0,0.1v0.4c0,0.1,0,0.1,0,0.1c0,0-0.1,0-0.1,0h-2.5v2.1h2.5
						c0.1,0,0.1,0,0.1,0c0,0,0,0,0,0.1v0.4c0,0.1,0,0.1,0,0.1c0,0-0.1,0-0.1,0h-2.4v2.7h2.7c0.1,0,0.1,0,0.1,0c0,0,0,0,0,0.1V27.7z"
						/>
					<path id="XMLID_2790_" d="M192.3,27.9h-3.2c-0.1,0-0.1,0-0.2,0c-0.1,0-0.1-0.1-0.1-0.2v-6.6c0-0.1,0-0.2,0.1-0.2
						c0,0,0.1,0,0.2,0h3.1c0.1,0,0.1,0,0.2,0c0.1,0,0.1,0.1,0.1,0.2v0.4c0,0.1,0,0.2-0.1,0.2c0,0-0.1,0-0.2,0h-2.4v1.8h2.3
						c0.1,0,0.1,0,0.2,0c0.1,0,0.1,0.1,0.1,0.2v0.4c0,0.1,0,0.2-0.1,0.2c0,0-0.1,0-0.2,0h-2.3V27h2.6c0.1,0,0.1,0,0.2,0
						c0.1,0,0.1,0.1,0.1,0.2v0.4c0,0.1,0,0.2-0.1,0.2C192.5,27.9,192.4,27.9,192.3,27.9z M189.1,27.7L189.1,27.7h3.3h0v0v-0.4v0h0
						h-2.8v-2.9h2.6h0v0v-0.4v0h0h-2.6v-2.3h2.6c0,0,0,0,0,0v0v-0.4v0h0h-3.1h0v0V27.7L189.1,27.7z"/>
				</g>
				<g id="XMLID_2783_">
					<path id="XMLID_2787_" d="M199.1,25.8c0,0.7-0.2,1.2-0.5,1.5c-0.3,0.3-0.8,0.5-1.5,0.5c-0.3,0-0.7-0.1-1-0.2
						c-0.3-0.2-0.7-0.4-1-0.8c0,0,0-0.1,0-0.1c0,0,0,0,0-0.1l0.4-0.3c0.1,0,0.1,0,0.1,0c0.2,0.2,0.4,0.4,0.6,0.6
						c0.2,0.1,0.5,0.2,0.7,0.2c0.1,0,0.3,0,0.4,0c0.2,0,0.3-0.1,0.4-0.2c0.1-0.1,0.2-0.2,0.3-0.4c0.1-0.2,0.1-0.4,0.1-0.7
						c0-0.3-0.1-0.5-0.3-0.8c-0.2-0.2-0.5-0.4-1-0.5c-0.2-0.1-0.3-0.1-0.4-0.1c-0.1,0-0.2-0.1-0.3-0.1c-0.1,0-0.2-0.1-0.3-0.2
						c-0.1-0.1-0.2-0.1-0.3-0.2c-0.2-0.1-0.3-0.3-0.4-0.5c-0.1-0.2-0.2-0.5-0.2-0.8c0-0.3,0-0.5,0.1-0.7c0.1-0.2,0.2-0.4,0.4-0.5
						c0.2-0.1,0.4-0.3,0.6-0.3c0.2-0.1,0.5-0.1,0.7-0.1c0.4,0,0.7,0.1,1,0.2c0.3,0.1,0.5,0.3,0.7,0.6c0,0,0,0.1,0,0.1l-0.4,0.3
						c0,0-0.1,0-0.1,0c0,0,0,0-0.1-0.1c-0.2-0.2-0.4-0.3-0.5-0.4c-0.2-0.1-0.4-0.1-0.7-0.1c-0.4,0-0.7,0.1-0.9,0.3
						c-0.2,0.2-0.3,0.4-0.3,0.7c0,0.2,0,0.3,0,0.4c0,0.1,0.1,0.2,0.2,0.3c0.1,0.1,0.2,0.2,0.4,0.3c0.2,0.1,0.4,0.2,0.7,0.3
						c0.3,0.1,0.5,0.2,0.7,0.3c0.2,0.1,0.4,0.2,0.6,0.4c0.2,0.2,0.3,0.3,0.4,0.5C199.1,25.3,199.1,25.6,199.1,25.8z"/>
					<path id="XMLID_2784_" d="M197.1,28c-0.3,0-0.7-0.1-1.1-0.2c-0.4-0.2-0.7-0.4-1-0.8c0-0.1-0.1-0.1-0.1-0.1c0-0.1,0-0.1,0.1-0.1
						l0.4-0.3c0.1-0.1,0.2-0.1,0.3,0c0.2,0.2,0.4,0.4,0.6,0.5c0.2,0.1,0.5,0.2,0.7,0.2c0.1,0,0.2,0,0.4,0c0.1,0,0.3-0.1,0.4-0.2
						c0.1-0.1,0.2-0.2,0.3-0.4c0.1-0.2,0.1-0.4,0.1-0.7c0-0.3-0.1-0.5-0.3-0.7c-0.2-0.2-0.5-0.4-1-0.5c-0.2-0.1-0.3-0.1-0.4-0.2
						c-0.1,0-0.2-0.1-0.3-0.1c-0.1-0.1-0.2-0.1-0.3-0.2c-0.1-0.1-0.2-0.1-0.3-0.2c-0.2-0.2-0.3-0.3-0.4-0.5
						c-0.1-0.2-0.2-0.5-0.2-0.9c0-0.3,0.1-0.5,0.2-0.7c0.1-0.2,0.2-0.4,0.4-0.6c0.2-0.2,0.4-0.3,0.6-0.4c0.2-0.1,0.5-0.1,0.8-0.1
						c0.4,0,0.8,0.1,1.1,0.2c0.3,0.2,0.5,0.4,0.8,0.6c0.1,0.1,0.1,0.2,0,0.3l-0.4,0.3c0,0-0.1,0.1-0.2,0.1c0,0-0.1,0-0.1-0.1
						c-0.2-0.2-0.3-0.3-0.5-0.4c-0.2-0.1-0.4-0.1-0.6-0.1c-0.3,0-0.6,0.1-0.8,0.2c-0.2,0.2-0.3,0.4-0.3,0.6c0,0.1,0,0.3,0,0.4
						c0,0.1,0.1,0.2,0.2,0.3c0.1,0.1,0.2,0.2,0.4,0.3c0.2,0.1,0.4,0.2,0.7,0.3c0.3,0.1,0.5,0.2,0.7,0.3c0.2,0.1,0.4,0.3,0.6,0.4
						c0.2,0.2,0.3,0.4,0.4,0.6c0.1,0.2,0.1,0.5,0.1,0.7c0,0.7-0.2,1.2-0.5,1.6C198.3,27.8,197.8,28,197.1,28z M195.3,26.8
						c0.3,0.3,0.6,0.6,0.9,0.7c0.3,0.1,0.7,0.2,1,0.2c0.6,0,1.1-0.2,1.4-0.5c0.3-0.3,0.5-0.8,0.5-1.4c0-0.2,0-0.5-0.1-0.6
						c-0.1-0.2-0.2-0.3-0.3-0.5c-0.1-0.1-0.3-0.3-0.5-0.4c-0.2-0.1-0.5-0.2-0.7-0.3c-0.3-0.1-0.5-0.2-0.7-0.3
						c-0.2-0.1-0.3-0.2-0.4-0.3c-0.1-0.1-0.2-0.2-0.2-0.4c0-0.1,0-0.3,0-0.4c0-0.3,0.1-0.6,0.3-0.8c0.2-0.2,0.5-0.3,0.9-0.3
						c0.3,0,0.5,0,0.7,0.1c0.2,0.1,0.4,0.2,0.6,0.5l0.3-0.3c-0.2-0.2-0.4-0.4-0.7-0.5c-0.2-0.1-0.6-0.2-1-0.2c-0.2,0-0.5,0-0.7,0.1
						c-0.2,0.1-0.4,0.2-0.5,0.3c-0.2,0.1-0.3,0.3-0.4,0.5c-0.1,0.2-0.1,0.4-0.1,0.6c0,0.3,0,0.6,0.1,0.8c0.1,0.2,0.2,0.3,0.4,0.5
						c0.1,0.1,0.2,0.1,0.3,0.2c0.1,0.1,0.2,0.1,0.2,0.2c0.1,0,0.2,0.1,0.3,0.1c0.1,0,0.2,0.1,0.4,0.1c0.5,0.2,0.9,0.3,1.1,0.6
						c0.2,0.2,0.3,0.5,0.3,0.8c0,0.3,0,0.6-0.1,0.8c-0.1,0.2-0.2,0.3-0.4,0.5c-0.1,0.1-0.3,0.2-0.5,0.2c-0.2,0-0.3,0-0.5,0
						c-0.3,0-0.5-0.1-0.8-0.2c-0.3-0.1-0.5-0.3-0.7-0.6L195.3,26.8z"/>
				</g>
				<g id="XMLID_2774_">
					<path id="XMLID_2780_" d="M206.4,26c0,0.6-0.2,1-0.5,1.4c-0.4,0.3-0.8,0.5-1.4,0.5c-0.6,0-1.1-0.2-1.4-0.5
						c-0.4-0.3-0.5-0.8-0.5-1.4v-3.3c0-0.6,0.2-1,0.5-1.3c0.4-0.3,0.8-0.5,1.4-0.5c0.6,0,1.1,0.2,1.4,0.5c0.4,0.3,0.5,0.8,0.5,1.3
						V26z M205.7,22.9c0-0.3,0-0.5-0.1-0.7c-0.1-0.2-0.2-0.3-0.3-0.4c-0.1-0.1-0.3-0.2-0.4-0.2c-0.1,0-0.3,0-0.4,0
						c-0.1,0-0.3,0-0.4,0c-0.1,0-0.3,0.1-0.4,0.2c-0.1,0.1-0.2,0.2-0.3,0.4c-0.1,0.2-0.1,0.4-0.1,0.7v3.1c0,0.3,0,0.5,0.1,0.7
						c0.1,0.2,0.2,0.3,0.3,0.4c0.1,0.1,0.3,0.2,0.4,0.2c0.1,0,0.3,0,0.4,0c0.1,0,0.2,0,0.4,0c0.1,0,0.3-0.1,0.4-0.2
						c0.1-0.1,0.2-0.2,0.3-0.4c0.1-0.2,0.1-0.4,0.1-0.7V22.9z"/>
					<path id="XMLID_2775_" d="M204.4,28c-0.6,0-1.1-0.2-1.5-0.5c-0.4-0.3-0.6-0.8-0.6-1.5v-3.3c0-0.6,0.2-1.1,0.6-1.4
						c0.4-0.3,0.9-0.5,1.5-0.5c0.6,0,1.1,0.2,1.5,0.5c0.4,0.3,0.6,0.8,0.6,1.4V26c0,0.6-0.2,1.1-0.6,1.5C205.5,27.8,205,28,204.4,28
						z M204.4,21c-0.6,0-1,0.2-1.4,0.4c-0.3,0.3-0.5,0.7-0.5,1.3V26c0,0.6,0.2,1,0.5,1.3c0.3,0.3,0.8,0.5,1.4,0.5
						c0.6,0,1-0.2,1.3-0.5c0.3-0.3,0.5-0.7,0.5-1.3v-3.3c0-0.5-0.2-1-0.5-1.3C205.4,21.2,205,21,204.4,21z M204.4,27.3
						c-0.1,0-0.3,0-0.4,0c-0.2,0-0.3-0.1-0.5-0.2c-0.1-0.1-0.3-0.2-0.4-0.4c-0.1-0.2-0.1-0.4-0.1-0.7v-3.1c0-0.3,0-0.5,0.1-0.7
						c0.1-0.2,0.2-0.3,0.4-0.4c0.1-0.1,0.3-0.2,0.5-0.2c0.3-0.1,0.5-0.1,0.8,0c0.2,0,0.3,0.1,0.5,0.2c0.1,0.1,0.3,0.2,0.4,0.4
						c0.1,0.2,0.1,0.4,0.1,0.7v3.1c0,0.3,0,0.5-0.1,0.7c-0.1,0.2-0.2,0.3-0.4,0.4c-0.1,0.1-0.3,0.2-0.5,0.2
						C204.7,27.3,204.5,27.3,204.4,27.3z M204.4,21.7c-0.1,0-0.2,0-0.4,0c-0.1,0-0.3,0.1-0.4,0.2c-0.1,0.1-0.2,0.2-0.3,0.3
						c-0.1,0.1-0.1,0.3-0.1,0.6v3.1c0,0.3,0,0.5,0.1,0.6c0.1,0.1,0.2,0.3,0.3,0.3c0.1,0.1,0.2,0.1,0.4,0.2c0.3,0.1,0.5,0.1,0.7,0
						c0.1,0,0.3-0.1,0.4-0.2c0.1-0.1,0.2-0.2,0.3-0.3c0.1-0.1,0.1-0.3,0.1-0.6v-3.1c0-0.3,0-0.5-0.1-0.6c-0.1-0.1-0.2-0.3-0.3-0.3
						c-0.1-0.1-0.2-0.1-0.4-0.2C204.6,21.7,204.5,21.7,204.4,21.7z"/>
				</g>
				<g id="XMLID_2768_">
					<path id="XMLID_2772_" d="M155.9,41.3c0,0.1,0,0.1,0,0.1c0,0,0,0-0.1,0h-3.3v-6.7c0-0.1,0-0.1,0-0.1c0,0,0.1,0,0.1,0h0.4
						c0.1,0,0.1,0,0.1,0c0,0,0,0,0,0.1v6h2.5c0.1,0,0.1,0,0.1,0c0,0,0,0,0,0.1V41.3z"/>
					<path id="XMLID_2769_" d="M155.7,41.5h-3.4v-6.8c0-0.1,0-0.2,0.1-0.2c0,0,0.1,0,0.2,0h0.4c0.1,0,0.1,0,0.2,0
						c0.1,0,0.1,0.1,0.1,0.2v5.9h2.4c0.1,0,0.2,0,0.2,0c0.1,0,0.1,0.1,0.1,0.2v0.4c0,0.1,0,0.1-0.1,0.2
						C155.9,41.5,155.8,41.5,155.7,41.5z M152.6,41.3h3.2h0l0,0v-0.4c0,0,0,0,0,0c0,0,0,0,0,0H153v-6.1v0h0h-0.4h0v0V41.3z"/>
				</g>
				<g id="XMLID_2760_">
					<path id="XMLID_2765_" d="M163,41.3C163,41.3,163,41.4,163,41.3C163,41.4,163,41.4,163,41.3l-0.6,0.1c0,0-0.1,0-0.1,0
						c0,0,0,0,0-0.1l-0.7-2.2h-2.1l-0.7,2.2c0,0.1,0,0.1,0,0.1c0,0-0.1,0-0.1,0h-0.5c0,0,0,0,0,0c0,0,0,0,0-0.1l1.9-6.7
						c0,0,0-0.1,0-0.1c0,0,0,0,0.1,0h0.8c0,0,0.1,0,0.1,0c0,0,0,0,0,0.1L163,41.3z M160.8,36.2c-0.1-0.2-0.1-0.5-0.2-0.6
						c0-0.2-0.1-0.3-0.1-0.5c0,0.2-0.1,0.3-0.1,0.5c0,0.2-0.1,0.4-0.2,0.6l-0.6,2.2h1.7L160.8,36.2z"/>
					<path id="XMLID_2761_" d="M162.9,41.5h-0.5c-0.1,0-0.1,0-0.1,0c-0.1,0-0.1-0.1-0.1-0.2l-0.6-2.2h-1.9l-0.6,2.2
						c0,0.1,0,0.1-0.1,0.2c0,0-0.1,0-0.1,0h-0.5c0,0-0.1,0-0.1,0c-0.1-0.1,0-0.2,0-0.2l1.9-6.7c0-0.1,0-0.1,0.1-0.1c0,0,0.1,0,0.1,0
						h0.4l0-0.2l0,0.2h0.3c0.1,0,0.1,0,0.1,0c0,0,0,0,0.1,0.1l1.9,6.7c0,0,0,0.1,0,0.2C163,41.5,163,41.5,162.9,41.5z M162.4,41.3
						C162.4,41.3,162.4,41.3,162.4,41.3l0.5,0l-1.9-6.6l-0.3,0l0,0.4c0,0.2,0,0.3,0.1,0.5c0,0.2,0.1,0.4,0.2,0.6l0,0l0.6,2.3h-2
						l0.7-2.3c0.1-0.2,0.1-0.4,0.2-0.6c0-0.2,0.1-0.3,0.1-0.5l0.1-0.4l-0.3,0l-1.9,6.6l0.4,0c0,0,0,0,0,0c0,0,0,0,0,0l0.7-2.3h2.3
						L162.4,41.3L162.4,41.3z M159.9,38.2h1.4l-0.6-2c-0.1-0.2-0.1-0.4-0.1-0.5c0,0.2-0.1,0.3-0.1,0.5L159.9,38.2z"/>
				</g>
				<g id="XMLID_2754_">
					<path id="XMLID_2758_" d="M169,35.1c0,0.1,0,0.1,0,0.1c0,0-0.1,0-0.1,0h-1.5v6c0,0.1,0,0.1,0,0.1c0,0-0.1,0-0.1,0h-0.4
						c-0.1,0-0.1,0-0.1,0c0,0,0,0,0-0.1v-6h-1.5c-0.1,0-0.1,0-0.1,0c0,0,0,0,0-0.1v-0.4c0-0.1,0-0.1,0-0.1c0,0,0.1,0,0.1,0h3.7
						c0.1,0,0.1,0,0.1,0c0,0,0,0,0,0.1V35.1z"/>
					<path id="XMLID_2755_" d="M167.3,41.5h-0.4c-0.1,0-0.1,0-0.2,0c-0.1,0-0.1-0.1-0.1-0.2v-5.9h-1.4c-0.1,0-0.1,0-0.2,0
						c-0.1,0-0.1-0.1-0.1-0.2v-0.4c0-0.1,0-0.2,0.1-0.2c0,0,0.1,0,0.2,0h3.7c0.1,0,0.1,0,0.2,0c0.1,0,0.1,0.1,0.1,0.2v0.4
						c0,0.1,0,0.1-0.1,0.2c0,0-0.1,0-0.2,0h-1.4v5.9c0,0.1,0,0.2-0.1,0.2C167.4,41.5,167.4,41.5,167.3,41.5z M166.8,41.3L166.8,41.3
						h0.4h0v0v-6.1h1.6h0l0,0v-0.4v0h0h-3.7h0c0,0,0,0,0,0v0.4v0h0h1.6V41.3L166.8,41.3z"/>
				</g>
				<g id="XMLID_2748_">
					<path id="XMLID_2752_" d="M174.2,41.3c0,0.1,0,0.1,0,0.1c0,0-0.1,0-0.1,0h-2.5c-0.1,0-0.1,0-0.1,0c0,0,0,0,0-0.1v-0.4
						c0-0.1,0-0.1,0-0.1c0,0,0.1,0,0.1,0h0.9v-5.4h-0.9c-0.1,0-0.1,0-0.1,0c0,0,0,0,0-0.1v-0.4c0-0.1,0-0.1,0-0.1c0,0,0.1,0,0.1,0
						h2.5c0.1,0,0.1,0,0.1,0c0,0,0,0,0,0.1v0.4c0,0.1,0,0.1,0,0.1c0,0-0.1,0-0.1,0h-0.9v5.4h0.9c0.1,0,0.1,0,0.1,0c0,0,0,0,0,0.1
						V41.3z"/>
					<path id="XMLID_2749_" d="M174.1,41.5h-2.5c-0.1,0-0.1,0-0.2,0c-0.1,0-0.1-0.1-0.1-0.2v-0.4c0-0.1,0-0.2,0.1-0.2
						c0,0,0.1,0,0.2,0h0.8v-5.2h-0.8c-0.1,0-0.1,0-0.2,0c-0.1,0-0.1-0.1-0.1-0.2v-0.4c0-0.1,0-0.2,0.1-0.2c0,0,0.1,0,0.2,0h2.5
						c0.1,0,0.1,0,0.2,0c0.1,0,0.1,0.1,0.1,0.2v0.4c0,0.1,0,0.2-0.1,0.2c0,0-0.1,0-0.2,0h-0.8v5.2h0.8c0.1,0,0.1,0,0.2,0
						c0.1,0,0.1,0.1,0.1,0.2v0.4c0,0.1,0,0.2-0.1,0.2C174.3,41.5,174.2,41.5,174.1,41.5z M171.6,41.3L171.6,41.3h2.5h0l0,0v-0.4
						c0,0,0,0,0,0l0,0h-1v-5.7h1h0l0,0v-0.4v0h0h-2.5h0v0v0.4v0h0h1v5.7h-1h0c0,0,0,0,0,0V41.3L171.6,41.3z"/>
				</g>
				<g id="XMLID_2741_">
					<path id="XMLID_2746_" d="M181.8,41.3C181.8,41.3,181.8,41.3,181.8,41.3C181.8,41.4,181.7,41.4,181.8,41.3l-1,0.1
						c0,0-0.1,0-0.1-0.1l-2.2-5.3c0-0.1-0.1-0.2-0.1-0.3c0-0.1-0.1-0.2-0.1-0.3c0-0.1-0.1-0.2-0.1-0.3c0-0.1-0.1-0.2-0.1-0.2
						c0,0.1,0,0.2,0,0.5c0,0.2,0,0.5,0,0.7v5.1c0,0.1,0,0.1,0,0.1c0,0-0.1,0-0.1,0h-0.4c-0.1,0-0.1,0-0.1,0c0,0,0,0,0-0.1v-6.6
						c0,0,0,0,0,0c0,0,0,0,0.1,0h0.9c0,0,0.1,0,0.1,0.1l2.1,5c0.1,0.1,0.1,0.3,0.2,0.4c0,0.1,0.1,0.2,0.1,0.3c0,0.1,0.1,0.2,0.1,0.3
						c0,0.1,0.1,0.2,0.1,0.3c0-0.3,0-0.6,0-0.8c0-0.2,0-0.4,0-0.5v-5c0-0.1,0-0.1,0-0.1c0,0,0.1,0,0.1,0h0.4c0.1,0,0.1,0,0.1,0
						c0,0,0,0,0,0.1V41.3z"/>
					<path id="XMLID_2742_" d="M181.3,41.8l-0.1-0.3h-0.4c-0.1,0-0.2-0.1-0.2-0.1l-2.2-5.3c0-0.1-0.1-0.1-0.1-0.2c0,0.1,0,0.2,0,0.3
						v5.1c0,0.1,0,0.2-0.1,0.2c0,0-0.1,0-0.2,0h-0.4c-0.1,0-0.1,0-0.2,0c-0.1,0-0.1-0.1-0.1-0.2v-6.6c0,0,0-0.1,0-0.1
						c0.1-0.1,0.1-0.1,0.2-0.1h0.9c0,0,0.1,0,0.2,0.1l2.1,5c0.1,0.1,0.1,0.3,0.2,0.4c0,0,0,0.1,0,0.1c0-0.1,0-0.2,0-0.3v-5
						c0-0.1,0-0.2,0.1-0.2c0,0,0.1,0,0.2,0h0.4c0.1,0,0.1,0,0.2,0c0.1,0,0.1,0.1,0.1,0.2v6.6c0,0,0,0.1,0,0.1c0,0.1-0.1,0.1-0.2,0.1
						h-0.4L181.3,41.8z M178.2,34.9c0,0,0,0.1,0.1,0.2c0,0.1,0.1,0.2,0.1,0.3c0,0.1,0.1,0.2,0.1,0.3c0,0.1,0.1,0.2,0.1,0.3l2.2,5.3
						l0.4,0L181,41c0-0.1-0.1-0.2-0.1-0.3c0-0.1-0.1-0.2-0.1-0.3c0-0.1-0.1-0.2-0.1-0.3c0-0.1-0.1-0.2-0.2-0.4l-2.1-4.9l-0.9,0
						l0,6.6v0l0,0h0.4h0l0,0v-5.1c0-0.2,0-0.5,0-0.7c0-0.2,0-0.4,0-0.5L178.2,34.9z M181.2,34.7L181.2,34.7v5c0,0.1,0,0.3,0,0.5
						c0,0.2,0,0.5,0,0.8l0,0.3l0.4,0v-6.6v0h0H181.2L181.2,34.7z"/>
				</g>
				<g id="XMLID_2732_">
					<path id="XMLID_2738_" d="M189.2,39.6c0,0.6-0.2,1-0.5,1.4c-0.4,0.3-0.8,0.5-1.4,0.5c-0.6,0-1.1-0.2-1.4-0.5
						c-0.4-0.3-0.5-0.8-0.5-1.4v-3.3c0-0.6,0.2-1,0.5-1.3c0.4-0.3,0.8-0.5,1.4-0.5c0.6,0,1.1,0.2,1.4,0.5c0.4,0.3,0.5,0.8,0.5,1.3
						V39.6z M188.5,36.5c0-0.3,0-0.5-0.1-0.7c-0.1-0.2-0.2-0.3-0.3-0.4c-0.1-0.1-0.3-0.2-0.4-0.2c-0.1,0-0.3,0-0.4,0
						c-0.1,0-0.3,0-0.4,0c-0.1,0-0.3,0.1-0.4,0.2c-0.1,0.1-0.2,0.2-0.3,0.4c-0.1,0.2-0.1,0.4-0.1,0.7v3.1c0,0.3,0,0.5,0.1,0.7
						c0.1,0.2,0.2,0.3,0.3,0.4c0.1,0.1,0.3,0.2,0.4,0.2c0.1,0,0.3,0,0.4,0c0.1,0,0.2,0,0.4,0c0.1,0,0.3-0.1,0.4-0.2
						c0.1-0.1,0.2-0.2,0.3-0.4c0.1-0.2,0.1-0.4,0.1-0.7V36.5z"/>
					<path id="XMLID_2733_" d="M187.2,41.6c-0.6,0-1.1-0.2-1.5-0.5c-0.4-0.3-0.6-0.8-0.6-1.5v-3.3c0-0.6,0.2-1.1,0.6-1.4
						c0.4-0.3,0.9-0.5,1.5-0.5c0.6,0,1.1,0.2,1.5,0.5c0.4,0.3,0.6,0.8,0.6,1.4v3.3c0,0.6-0.2,1.1-0.6,1.5
						C188.4,41.4,187.9,41.6,187.2,41.6z M187.2,34.6c-0.6,0-1,0.2-1.4,0.4c-0.3,0.3-0.5,0.7-0.5,1.3v3.3c0,0.6,0.2,1,0.5,1.3
						c0.3,0.3,0.8,0.5,1.4,0.5c0.6,0,1-0.2,1.3-0.5c0.3-0.3,0.5-0.7,0.5-1.3v-3.3c0-0.5-0.2-1-0.5-1.3
						C188.3,34.8,187.8,34.6,187.2,34.6z M187.2,40.9c-0.1,0-0.3,0-0.4,0c-0.2,0-0.3-0.1-0.5-0.2c-0.1-0.1-0.3-0.2-0.4-0.4
						c-0.1-0.2-0.1-0.4-0.1-0.7v-3.1c0-0.3,0-0.5,0.1-0.7c0.1-0.2,0.2-0.3,0.4-0.4c0.1-0.1,0.3-0.2,0.5-0.2c0.3-0.1,0.5-0.1,0.8,0
						c0.2,0,0.3,0.1,0.5,0.2c0.1,0.1,0.3,0.2,0.4,0.4c0.1,0.2,0.1,0.4,0.1,0.7v3.1c0,0.3,0,0.5-0.1,0.7c-0.1,0.2-0.2,0.3-0.4,0.4
						c-0.1,0.1-0.3,0.2-0.5,0.2C187.5,40.9,187.4,40.9,187.2,40.9z M187.2,35.3c-0.1,0-0.2,0-0.4,0c-0.1,0-0.3,0.1-0.4,0.2
						c-0.1,0.1-0.2,0.2-0.3,0.3c-0.1,0.1-0.1,0.3-0.1,0.6v3.1c0,0.3,0,0.5,0.1,0.6c0.1,0.1,0.2,0.3,0.3,0.3c0.1,0.1,0.2,0.1,0.4,0.2
						c0.3,0.1,0.5,0.1,0.7,0c0.1,0,0.3-0.1,0.4-0.2c0.1-0.1,0.2-0.2,0.3-0.3c0.1-0.1,0.1-0.3,0.1-0.6v-3.1c0-0.3,0-0.5-0.1-0.6
						c-0.1-0.1-0.2-0.3-0.3-0.3c-0.1-0.1-0.2-0.1-0.4-0.2C187.5,35.3,187.4,35.3,187.2,35.3z"/>
				</g>
				<g id="XMLID_2724_">
					<path id="XMLID_2729_" d="M196.9,41.3C196.9,41.3,196.9,41.4,196.9,41.3C196.9,41.4,196.9,41.4,196.9,41.3l-0.6,0.1
						c0,0-0.1,0-0.1,0c0,0,0,0,0-0.1l-0.7-2.2h-2.1l-0.7,2.2c0,0.1,0,0.1,0,0.1c0,0-0.1,0-0.1,0h-0.5c0,0,0,0,0,0c0,0,0,0,0-0.1
						l1.9-6.7c0,0,0-0.1,0-0.1c0,0,0,0,0.1,0h0.8c0,0,0.1,0,0.1,0c0,0,0,0,0,0.1L196.9,41.3z M194.7,36.2c-0.1-0.2-0.1-0.5-0.2-0.6
						c0-0.2-0.1-0.3-0.1-0.5c0,0.2-0.1,0.3-0.1,0.5c0,0.2-0.1,0.4-0.2,0.6l-0.6,2.2h1.7L194.7,36.2z"/>
					<path id="XMLID_2725_" d="M196.9,41.5h-0.5c-0.1,0-0.1,0-0.1,0c-0.1,0-0.1-0.1-0.1-0.2l-0.6-2.2h-1.9l-0.6,2.2
						c0,0.1,0,0.1-0.1,0.2c0,0-0.1,0-0.1,0h-0.5c0,0-0.1,0-0.1,0c-0.1-0.1,0-0.2,0-0.2l1.9-6.7c0-0.1,0-0.1,0.1-0.1c0,0,0.1,0,0.1,0
						h0.4l0-0.2l0,0.2h0.3c0.1,0,0.1,0,0.1,0c0,0,0,0,0.1,0.1l1.9,6.7c0,0,0,0.1,0,0.2C196.9,41.5,196.9,41.5,196.9,41.5z
						 M196.3,41.3C196.3,41.3,196.3,41.3,196.3,41.3l0.5,0l-1.9-6.6l-0.3,0l0,0.4c0,0.2,0,0.3,0.1,0.5c0,0.2,0.1,0.4,0.2,0.6l0,0
						l0.6,2.3h-2l0.7-2.3c0.1-0.2,0.1-0.4,0.2-0.6c0-0.2,0.1-0.3,0.1-0.5l0.1-0.4l-0.3,0l-1.9,6.6l0.4,0c0,0,0,0,0,0c0,0,0,0,0,0
						l0.7-2.3h2.3L196.3,41.3L196.3,41.3z M193.8,38.2h1.4l-0.6-2c-0.1-0.2-0.1-0.4-0.1-0.5c0,0.2-0.1,0.3-0.1,0.5L193.8,38.2z"/>
				</g>
				<g id="XMLID_2717_">
					<path id="XMLID_2722_" d="M204.8,41.3C204.8,41.3,204.7,41.4,204.8,41.3l-0.6,0.1c-0.1,0-0.1,0-0.1-0.1l-0.2-5.2
						c0-0.1,0-0.3,0-0.4c0-0.1,0-0.3,0-0.4c0-0.1,0-0.2,0-0.3c0-0.1,0-0.1,0-0.2c0,0,0,0.1,0,0.1c0,0.1,0,0.1,0,0.2
						c0,0.1,0,0.1,0,0.2c0,0.1,0,0.1,0,0.1l-1.1,3.8c0,0,0,0.1,0,0.1c0,0,0,0-0.1,0h-0.6c0,0-0.1,0-0.1,0c0,0,0,0,0-0.1l-1.1-3.8
						c0,0,0-0.1,0-0.1c0-0.1,0-0.1,0-0.2c0-0.1,0-0.1,0-0.2c0-0.1,0-0.1,0-0.1c0,0,0,0.1,0,0.2c0,0.1,0,0.2,0,0.3c0,0.1,0,0.2,0,0.4
						c0,0.1,0,0.3,0,0.4l-0.2,5.2c0,0.1,0,0.1-0.1,0.1h-0.5c-0.1,0-0.1,0-0.1-0.1l0.3-6.6c0-0.1,0-0.1,0.1-0.1h0.9
						c0.1,0,0.1,0,0.1,0.1l0.8,2.7c0,0.1,0.1,0.2,0.1,0.3c0,0.1,0.1,0.3,0.1,0.4c0,0.1,0.1,0.3,0.1,0.4c0,0.1,0.1,0.3,0.1,0.4
						c0-0.1,0-0.2,0.1-0.4c0-0.1,0.1-0.3,0.1-0.4c0-0.1,0.1-0.3,0.1-0.4c0-0.1,0.1-0.2,0.1-0.3l0.8-2.7c0,0,0-0.1,0.1-0.1h0.9
						c0,0,0.1,0,0.1,0.1L204.8,41.3z"/>
					<path id="XMLID_2718_" d="M204.7,41.5h-0.5c-0.1,0-0.2-0.1-0.2-0.2l-0.2-5.2c0-0.1,0-0.1,0-0.2l-1,3.4c0,0,0,0.1-0.1,0.2
						c0,0-0.1,0-0.1,0h-0.2l-0.1,0.5l-0.1-0.5h-0.2c0,0-0.1,0-0.1,0c-0.1,0-0.1-0.1-0.1-0.2l-1-3.4c0,0.1,0,0.1,0,0.2l-0.2,5.2
						c0,0.1-0.1,0.2-0.2,0.2h-0.5c-0.1,0-0.2-0.1-0.2-0.2l0.3-6.6c0-0.1,0.1-0.2,0.2-0.2h0.9c0.1,0,0.2,0.1,0.2,0.2l0.8,2.7
						c0,0.1,0.1,0.2,0.1,0.3c0,0.1,0.1,0.3,0.1,0.4c0,0.1,0,0.2,0.1,0.2c0-0.1,0-0.1,0.1-0.2c0-0.1,0.1-0.3,0.1-0.4
						c0-0.1,0.1-0.2,0.1-0.3l0.8-2.7c0-0.1,0.1-0.2,0.2-0.2h0.9c0.1,0,0.2,0.1,0.2,0.2l0.3,6.6C204.9,41.4,204.8,41.5,204.7,41.5z
						 M199.8,41.3l0.4,0l0.2-5.1c0-0.1,0-0.2,0-0.4c0-0.1,0-0.3,0-0.4c0-0.1,0-0.2,0-0.3c0-0.1,0-0.1,0-0.2l0.2,0c0,0,0,0.1,0,0.1
						c0,0.1,0,0.1,0,0.2c0,0.1,0,0.1,0,0.2c0,0.1,0,0.1,0,0.1l1.1,3.8l0,0l0,0h0.2l0-0.3c0-0.1,0-0.2-0.1-0.4c0-0.1-0.1-0.3-0.1-0.4
						c0-0.1-0.1-0.3-0.1-0.4c0-0.1-0.1-0.2-0.1-0.3l-0.8-2.7h-0.8L199.8,41.3z M204.2,41.3l0.4,0l-0.3-6.6h-0.9l-0.9,3
						c0,0.1-0.1,0.3-0.1,0.4c0,0.1-0.1,0.3-0.1,0.4c0,0.1-0.1,0.3-0.1,0.4l0,0.3h0.2h0l1.1-3.8c0,0,0-0.1,0-0.1l0-0.2
						c0-0.1,0-0.1,0-0.2c0-0.1,0-0.1,0-0.1l0.2,0c0,0,0,0.1,0,0.2c0,0.1,0,0.2,0,0.3c0,0.1,0,0.2,0,0.4c0,0.1,0,0.3,0,0.4
						L204.2,41.3z"/>
				</g>
				<g id="XMLID_2711_">
					<path id="XMLID_2715_" d="M211.6,41.3c0,0.1,0,0.1,0,0.1c0,0-0.1,0-0.1,0h-3.2c-0.1,0-0.1,0-0.1,0c0,0,0,0,0-0.1v-6.6
						c0-0.1,0-0.1,0-0.1c0,0,0.1,0,0.1,0h3.1c0.1,0,0.1,0,0.1,0c0,0,0,0,0,0.1v0.4c0,0.1,0,0.1,0,0.1c0,0-0.1,0-0.1,0h-2.5v2.1h2.5
						c0.1,0,0.1,0,0.1,0c0,0,0,0,0,0.1v0.4c0,0.1,0,0.1,0,0.1c0,0-0.1,0-0.1,0h-2.4v2.7h2.7c0.1,0,0.1,0,0.1,0c0,0,0,0,0,0.1V41.3z"
						/>
					<path id="XMLID_2712_" d="M211.5,41.5h-3.2c-0.1,0-0.1,0-0.2,0c-0.1,0-0.1-0.1-0.1-0.2v-6.6c0-0.1,0-0.2,0.1-0.2
						c0,0,0.1,0,0.2,0h3.1c0.1,0,0.1,0,0.2,0c0.1,0,0.1,0.1,0.1,0.2v0.4c0,0.1,0,0.2-0.1,0.2c0,0-0.1,0-0.2,0h-2.4v1.8h2.3
						c0.1,0,0.1,0,0.2,0c0.1,0,0.1,0.1,0.1,0.2v0.4c0,0.1,0,0.2-0.1,0.2c0,0-0.1,0-0.2,0h-2.3v2.4h2.6c0.1,0,0.1,0,0.2,0
						c0.1,0,0.1,0.1,0.1,0.2v0.4c0,0.1,0,0.2-0.1,0.2C211.6,41.5,211.6,41.5,211.5,41.5z M208.2,41.3L208.2,41.3h3.3h0l0,0v-0.4
						c0,0,0,0,0,0l0,0h-2.8v-2.9h2.6h0v0v-0.4v0h0h-2.6v-2.3h2.6c0,0,0,0,0,0v0v-0.4v0h0h-3.1h0v0V41.3L208.2,41.3z"/>
				</g>
				<g id="XMLID_2702_">
					<path id="XMLID_2708_" d="M218.4,41.3c0,0.1,0,0.1-0.1,0.1h-0.5c-0.1,0-0.1,0-0.1,0c0,0,0,0-0.1-0.1l-1.5-3h-1v3
						c0,0.1,0,0.1,0,0.1c0,0-0.1,0-0.1,0h-0.4c-0.1,0-0.1,0-0.1,0c0,0,0,0,0-0.1v-6.6c0-0.1,0-0.1,0-0.1c0,0,0.1,0,0.1,0h2.3
						c0.2,0,0.4,0,0.6,0.1c0.2,0.1,0.3,0.2,0.5,0.3c0.1,0.1,0.2,0.3,0.3,0.5c0.1,0.2,0.1,0.4,0.1,0.7v0.6c0,0.3,0,0.5-0.1,0.7
						c-0.1,0.2-0.2,0.4-0.3,0.5c-0.1,0.1-0.3,0.2-0.5,0.3c-0.2,0.1-0.4,0.1-0.5,0.1L218.4,41.3z M217.6,36.2c0-0.3-0.1-0.5-0.2-0.7
						c-0.2-0.1-0.4-0.2-0.7-0.2h-1.6v2.3h1.6c0.3,0,0.5-0.1,0.7-0.2c0.2-0.1,0.2-0.4,0.2-0.7V36.2z"/>
					<path id="XMLID_2703_" d="M218.3,41.5h-0.5c-0.1,0-0.2,0-0.2,0c0,0-0.1-0.1-0.1-0.1l-1.5-3h-0.8v2.9c0,0.1,0,0.2-0.1,0.2
						c0,0-0.1,0-0.2,0h-0.4c-0.1,0-0.1,0-0.2,0c-0.1,0-0.1-0.1-0.1-0.2v-6.6c0-0.1,0-0.2,0.1-0.2c0,0,0.1,0,0.2,0h2.3
						c0.2,0,0.4,0,0.6,0.1c0.2,0.1,0.4,0.2,0.5,0.3c0.1,0.1,0.3,0.3,0.3,0.5c0.1,0.2,0.1,0.4,0.1,0.7v0.6c0,0.3,0,0.5-0.1,0.7
						c-0.1,0.2-0.2,0.4-0.3,0.5c-0.1,0.1-0.3,0.2-0.5,0.3c-0.1,0-0.3,0.1-0.4,0.1l1.5,2.9c0.1,0.1,0,0.2,0,0.2
						C218.5,41.5,218.4,41.5,218.3,41.5z M217.8,41.3C217.8,41.3,217.8,41.3,217.8,41.3l0.5,0l-1.6-3.1h0.2c0.2,0,0.3,0,0.5-0.1
						c0.2-0.1,0.3-0.1,0.4-0.2c0.1-0.1,0.2-0.3,0.3-0.4c0.1-0.2,0.1-0.4,0.1-0.6v-0.6c0-0.2,0-0.5-0.1-0.6c-0.1-0.2-0.2-0.3-0.3-0.4
						c-0.1-0.1-0.3-0.2-0.4-0.2c-0.2-0.1-0.3-0.1-0.5-0.1h-2.3h0v0v6.6v0l0,0h0.4h0v0v-3.1h1.2L217.8,41.3
						C217.8,41.2,217.8,41.3,217.8,41.3L217.8,41.3z M216.7,37.7H215v-2.5h1.7c0.3,0,0.6,0.1,0.7,0.2c0.2,0.2,0.3,0.4,0.3,0.8v0.5
						c0,0.3-0.1,0.6-0.3,0.8C217.3,37.6,217,37.7,216.7,37.7z M215.3,37.4h1.5c0.3,0,0.4-0.1,0.6-0.2c0.1-0.1,0.2-0.3,0.2-0.6v-0.5
						c0-0.3-0.1-0.5-0.2-0.6c-0.1-0.1-0.3-0.2-0.6-0.2h-1.5V37.4z"/>
				</g>
				<g id="XMLID_2696_">
					<path id="XMLID_2700_" d="M224,41.3c0,0.1,0,0.1,0,0.1c0,0-0.1,0-0.1,0h-2.5c-0.1,0-0.1,0-0.1,0c0,0,0,0,0-0.1v-0.4
						c0-0.1,0-0.1,0-0.1c0,0,0.1,0,0.1,0h0.9v-5.4h-0.9c-0.1,0-0.1,0-0.1,0c0,0,0,0,0-0.1v-0.4c0-0.1,0-0.1,0-0.1c0,0,0.1,0,0.1,0
						h2.5c0.1,0,0.1,0,0.1,0c0,0,0,0,0,0.1v0.4c0,0.1,0,0.1,0,0.1c0,0-0.1,0-0.1,0h-0.9v5.4h0.9c0.1,0,0.1,0,0.1,0c0,0,0,0,0,0.1
						V41.3z"/>
					<path id="XMLID_2697_" d="M223.9,41.5h-2.5c-0.1,0-0.1,0-0.2,0c-0.1,0-0.1-0.1-0.1-0.2v-0.4c0-0.1,0-0.2,0.1-0.2
						c0,0,0.1,0,0.2,0h0.8v-5.2h-0.8c-0.1,0-0.1,0-0.2,0c-0.1,0-0.1-0.1-0.1-0.2v-0.4c0-0.1,0-0.2,0.1-0.2c0,0,0.1,0,0.2,0h2.5
						c0.1,0,0.1,0,0.2,0c0.1,0,0.1,0.1,0.1,0.2v0.4c0,0.1,0,0.2-0.1,0.2c0,0-0.1,0-0.2,0h-0.8v5.2h0.8c0.1,0,0.1,0,0.2,0
						c0.1,0,0.1,0.1,0.1,0.2v0.4c0,0.1,0,0.2-0.1,0.2C224,41.5,223.9,41.5,223.9,41.5z M221.3,41.3L221.3,41.3h2.5h0v0v-0.4
						c0,0,0,0,0,0l0,0h-1v-5.7h1h0v0v-0.4v0h0h-2.5h0v0v0.4v0h0h1v5.7h-1h0c0,0,0,0,0,0V41.3L221.3,41.3z"/>
				</g>
				<g id="XMLID_2690_">
					<path id="XMLID_2694_" d="M231,39.7c0,0.6-0.2,1-0.5,1.3c-0.4,0.3-0.8,0.5-1.4,0.5c-0.6,0-1.1-0.2-1.4-0.5
						c-0.4-0.3-0.5-0.8-0.5-1.4v-3.3c0-0.6,0.2-1,0.5-1.3c0.4-0.3,0.8-0.5,1.4-0.5c0.6,0,1.1,0.2,1.4,0.5c0.4,0.3,0.5,0.8,0.5,1.3
						c0,0.1,0,0.1-0.1,0.1l-0.5,0c-0.1,0-0.1,0-0.1-0.1c0-0.2-0.1-0.4-0.2-0.6s-0.2-0.3-0.3-0.4c-0.1-0.1-0.3-0.1-0.4-0.2
						c-0.1,0-0.3,0-0.4,0c-0.1,0-0.3,0-0.4,0c-0.1,0-0.3,0.1-0.4,0.2c-0.1,0.1-0.2,0.2-0.3,0.4c-0.1,0.2-0.1,0.4-0.1,0.7v3.1
						c0,0.3,0,0.5,0.1,0.7c0.1,0.2,0.2,0.3,0.3,0.4c0.1,0.1,0.3,0.2,0.4,0.2c0.1,0,0.3,0,0.4,0c0.1,0,0.2,0,0.4,0
						c0.1,0,0.3-0.1,0.4-0.2c0.1-0.1,0.2-0.2,0.3-0.3c0.1-0.1,0.1-0.3,0.2-0.6c0-0.1,0-0.1,0.1-0.1l0.5,0
						C231,39.6,231,39.6,231,39.7z"/>
					<path id="XMLID_2691_" d="M229,41.6c-0.6,0-1.1-0.2-1.5-0.5c-0.4-0.3-0.6-0.8-0.6-1.5v-3.3c0-0.6,0.2-1.1,0.6-1.4
						c0.4-0.3,0.9-0.5,1.5-0.5c0.6,0,1.1,0.2,1.5,0.5c0.4,0.3,0.6,0.8,0.6,1.4c0,0.2-0.1,0.2-0.2,0.2l-0.5,0h0
						c-0.1,0-0.2-0.1-0.2-0.2c0-0.2-0.1-0.4-0.1-0.5c-0.1-0.1-0.2-0.2-0.3-0.3c-0.1-0.1-0.2-0.1-0.4-0.2c-0.3-0.1-0.5-0.1-0.7,0
						c-0.1,0-0.3,0.1-0.4,0.2c-0.1,0.1-0.2,0.2-0.3,0.3c-0.1,0.1-0.1,0.3-0.1,0.6v3.1c0,0.3,0,0.5,0.1,0.6c0.1,0.1,0.2,0.3,0.3,0.3
						c0.1,0.1,0.2,0.1,0.4,0.2c0.3,0.1,0.4,0.1,0.7,0c0.1,0,0.2-0.1,0.4-0.1c0.1-0.1,0.2-0.2,0.3-0.3c0.1-0.1,0.1-0.3,0.1-0.5
						c0-0.2,0.1-0.2,0.2-0.2l0.5,0h0c0.1,0,0.2,0.1,0.2,0.2v0c0,0.6-0.2,1.1-0.6,1.4C230.2,41.4,229.7,41.6,229,41.6z M229,34.6
						c-0.6,0-1,0.2-1.4,0.4c-0.3,0.3-0.5,0.7-0.5,1.3v3.3c0,0.6,0.2,1,0.5,1.3c0.3,0.3,0.8,0.5,1.4,0.5c0.6,0,1-0.1,1.3-0.4
						c0.3-0.3,0.5-0.7,0.5-1.2c0,0,0,0,0,0l-0.5,0c0,0,0,0,0,0c0,0.3-0.1,0.5-0.2,0.6c-0.1,0.2-0.2,0.3-0.4,0.4
						c-0.1,0.1-0.3,0.1-0.4,0.2c-0.3,0.1-0.5,0.1-0.8,0c-0.2,0-0.3-0.1-0.5-0.2c-0.1-0.1-0.3-0.2-0.4-0.4c-0.1-0.2-0.1-0.4-0.1-0.7
						v-3.1c0-0.3,0-0.5,0.1-0.7c0.1-0.2,0.2-0.3,0.4-0.4c0.1-0.1,0.3-0.2,0.5-0.2c0.3-0.1,0.5-0.1,0.8,0c0.2,0,0.3,0.1,0.4,0.2
						c0.1,0.1,0.3,0.2,0.4,0.4c0.1,0.2,0.2,0.4,0.2,0.7l0.5,0c0-0.5-0.2-0.9-0.5-1.2C230.1,34.8,229.6,34.6,229,34.6z"/>
				</g>
				<g id="XMLID_2682_">
					<path id="XMLID_2687_" d="M238.5,41.3C238.5,41.3,238.5,41.4,238.5,41.3C238.5,41.4,238.5,41.4,238.5,41.3l-0.6,0.1
						c0,0-0.1,0-0.1,0c0,0,0,0,0-0.1l-0.7-2.2H235l-0.7,2.2c0,0.1,0,0.1,0,0.1c0,0-0.1,0-0.1,0h-0.5c0,0,0,0,0,0c0,0,0,0,0-0.1
						l1.9-6.7c0,0,0-0.1,0-0.1c0,0,0,0,0.1,0h0.8c0,0,0.1,0,0.1,0c0,0,0,0,0,0.1L238.5,41.3z M236.3,36.2c-0.1-0.2-0.1-0.5-0.2-0.6
						c0-0.2-0.1-0.3-0.1-0.5c0,0.2-0.1,0.3-0.1,0.5c0,0.2-0.1,0.4-0.2,0.6l-0.6,2.2h1.7L236.3,36.2z"/>
					<path id="XMLID_2683_" d="M238.4,41.5h-0.5c-0.1,0-0.1,0-0.1,0c-0.1,0-0.1-0.1-0.1-0.2l-0.6-2.2h-1.9l-0.6,2.2
						c0,0.1,0,0.1-0.1,0.2c0,0-0.1,0-0.1,0h-0.5c0,0-0.1,0-0.1,0c-0.1-0.1,0-0.2,0-0.2l1.9-6.7c0-0.1,0-0.1,0.1-0.1c0,0,0.1,0,0.1,0
						h0.4l0-0.2l0,0.2h0.3c0.1,0,0.1,0,0.1,0c0,0,0,0,0.1,0.1l1.9,6.7c0,0,0,0.1,0,0.2C238.5,41.5,238.5,41.5,238.4,41.5z
						 M237.9,41.3C237.9,41.3,237.9,41.3,237.9,41.3l0.5,0l-1.9-6.6l-0.3,0l0,0.4c0,0.2,0,0.3,0.1,0.5c0,0.2,0.1,0.4,0.2,0.6l0,0
						l0.6,2.3h-2l0.7-2.3c0.1-0.2,0.1-0.4,0.2-0.6c0-0.2,0.1-0.3,0.1-0.5l0.1-0.4l-0.3,0l-1.9,6.6l0.4,0c0,0,0,0,0,0c0,0,0,0,0,0
						l0.7-2.3h2.3L237.9,41.3L237.9,41.3z M235.3,38.2h1.4l-0.6-2c-0.1-0.2-0.1-0.4-0.1-0.5c0,0.2-0.1,0.3-0.1,0.5L235.3,38.2z"/>
				</g>
				<g id="XMLID_2675_">
					<path id="XMLID_2680_" d="M245.7,41.3C245.7,41.3,245.7,41.3,245.7,41.3C245.6,41.4,245.6,41.4,245.7,41.3l-1,0.1
						c0,0-0.1,0-0.1-0.1l-2.2-5.3c0-0.1-0.1-0.2-0.1-0.3c0-0.1-0.1-0.2-0.1-0.3c0-0.1-0.1-0.2-0.1-0.3c0-0.1-0.1-0.2-0.1-0.2
						c0,0.1,0,0.2,0,0.5c0,0.2,0,0.5,0,0.7v5.1c0,0.1,0,0.1,0,0.1c0,0-0.1,0-0.1,0h-0.4c-0.1,0-0.1,0-0.1,0c0,0,0,0,0-0.1v-6.6
						c0,0,0,0,0,0c0,0,0,0,0.1,0h0.9c0,0,0.1,0,0.1,0.1l2.1,5c0.1,0.1,0.1,0.3,0.2,0.4c0,0.1,0.1,0.2,0.1,0.3c0,0.1,0.1,0.2,0.1,0.3
						c0,0.1,0.1,0.2,0.1,0.3c0-0.3,0-0.6,0-0.8c0-0.2,0-0.4,0-0.5v-5c0-0.1,0-0.1,0-0.1c0,0,0.1,0,0.1,0h0.4c0.1,0,0.1,0,0.1,0
						c0,0,0,0,0,0.1V41.3z"/>
					<path id="XMLID_2676_" d="M245.2,41.8l-0.1-0.3h-0.4c-0.1,0-0.2-0.1-0.2-0.1l-2.2-5.3c0-0.1-0.1-0.1-0.1-0.2c0,0.1,0,0.2,0,0.3
						v5.1c0,0.1,0,0.2-0.1,0.2c0,0-0.1,0-0.2,0h-0.4c-0.1,0-0.1,0-0.2,0c-0.1,0-0.1-0.1-0.1-0.2v-6.6c0,0,0-0.1,0-0.1
						c0.1-0.1,0.1-0.1,0.2-0.1h0.9c0,0,0.1,0,0.2,0.1l2.1,5c0.1,0.1,0.1,0.3,0.2,0.4c0,0,0,0.1,0,0.1c0-0.1,0-0.2,0-0.3v-5
						c0-0.1,0-0.2,0.1-0.2c0,0,0.1,0,0.2,0h0.4c0.1,0,0.1,0,0.2,0c0.1,0,0.1,0.1,0.1,0.2v6.6c0,0,0,0.1,0,0.1c0,0.1-0.1,0.1-0.2,0.1
						h-0.4L245.2,41.8z M242.1,34.9c0,0,0,0.1,0.1,0.2c0,0.1,0.1,0.2,0.1,0.3c0,0.1,0.1,0.2,0.1,0.3c0,0.1,0.1,0.2,0.1,0.3l2.2,5.3
						l0.4,0l-0.1-0.3c0-0.1-0.1-0.2-0.1-0.3c0-0.1-0.1-0.2-0.1-0.3c0-0.1-0.1-0.2-0.1-0.3c0-0.1-0.1-0.2-0.2-0.4l-2.1-4.9l-0.9,0
						l0,6.6v0l0,0h0.4h0v0v-5.1c0-0.2,0-0.5,0-0.7c0-0.2,0-0.4,0-0.5L242.1,34.9z M245.1,34.7L245.1,34.7v5c0,0.1,0,0.3,0,0.5
						c0,0.2,0,0.5,0,0.8l0,0.3l0.4,0v-6.6v0h0H245.1L245.1,34.7z"/>
				</g>
				<g id="XMLID_2666_">
					<path id="XMLID_2672_" d="M253.1,39.6c0,0.6-0.2,1-0.5,1.4c-0.4,0.3-0.8,0.5-1.4,0.5c-0.6,0-1.1-0.2-1.4-0.5
						c-0.4-0.3-0.5-0.8-0.5-1.4v-3.3c0-0.6,0.2-1,0.5-1.3c0.4-0.3,0.8-0.5,1.4-0.5c0.6,0,1.1,0.2,1.4,0.5c0.4,0.3,0.5,0.8,0.5,1.3
						V39.6z M252.4,36.5c0-0.3,0-0.5-0.1-0.7c-0.1-0.2-0.2-0.3-0.3-0.4c-0.1-0.1-0.3-0.2-0.4-0.2c-0.1,0-0.3,0-0.4,0
						c-0.1,0-0.3,0-0.4,0c-0.1,0-0.3,0.1-0.4,0.2c-0.1,0.1-0.2,0.2-0.3,0.4c-0.1,0.2-0.1,0.4-0.1,0.7v3.1c0,0.3,0,0.5,0.1,0.7
						c0.1,0.2,0.2,0.3,0.3,0.4c0.1,0.1,0.3,0.2,0.4,0.2c0.1,0,0.3,0,0.4,0c0.1,0,0.2,0,0.4,0c0.1,0,0.3-0.1,0.4-0.2
						c0.1-0.1,0.2-0.2,0.3-0.4c0.1-0.2,0.1-0.4,0.1-0.7V36.5z"/>
					<path id="XMLID_2667_" d="M251.1,41.6c-0.6,0-1.1-0.2-1.5-0.5c-0.4-0.3-0.6-0.8-0.6-1.5v-3.3c0-0.6,0.2-1.1,0.6-1.4
						c0.4-0.3,0.9-0.5,1.5-0.5c0.6,0,1.1,0.2,1.5,0.5c0.4,0.3,0.6,0.8,0.6,1.4v3.3c0,0.6-0.2,1.1-0.6,1.5
						C252.3,41.4,251.8,41.6,251.1,41.6z M251.1,34.6c-0.6,0-1,0.2-1.4,0.4c-0.3,0.3-0.5,0.7-0.5,1.3v3.3c0,0.6,0.2,1,0.5,1.3
						c0.3,0.3,0.8,0.5,1.4,0.5c0.6,0,1-0.2,1.3-0.5c0.3-0.3,0.5-0.7,0.5-1.3v-3.3c0-0.5-0.2-1-0.5-1.3
						C252.1,34.8,251.7,34.6,251.1,34.6z M251.1,40.9c-0.1,0-0.3,0-0.4,0c-0.2,0-0.3-0.1-0.5-0.2c-0.1-0.1-0.3-0.2-0.4-0.4
						c-0.1-0.2-0.1-0.4-0.1-0.7v-3.1c0-0.3,0-0.5,0.1-0.7c0.1-0.2,0.2-0.3,0.4-0.4c0.1-0.1,0.3-0.2,0.5-0.2c0.3-0.1,0.5-0.1,0.8,0
						c0.2,0,0.3,0.1,0.5,0.2c0.1,0.1,0.3,0.2,0.4,0.4c0.1,0.2,0.1,0.4,0.1,0.7v3.1c0,0.3,0,0.5-0.1,0.7c-0.1,0.2-0.2,0.3-0.4,0.4
						c-0.1,0.1-0.3,0.2-0.5,0.2C251.4,40.9,251.2,40.9,251.1,40.9z M251.1,35.3c-0.1,0-0.2,0-0.4,0c-0.1,0-0.3,0.1-0.4,0.2
						c-0.1,0.1-0.2,0.2-0.3,0.3c-0.1,0.1-0.1,0.3-0.1,0.6v3.1c0,0.3,0,0.5,0.1,0.6c0.1,0.1,0.2,0.3,0.3,0.3c0.1,0.1,0.2,0.1,0.4,0.2
						c0.3,0.1,0.5,0.1,0.7,0c0.1,0,0.3-0.1,0.4-0.2c0.1-0.1,0.2-0.2,0.3-0.3c0.1-0.1,0.1-0.3,0.1-0.6v-3.1c0-0.3,0-0.5-0.1-0.6
						c-0.1-0.1-0.2-0.3-0.3-0.3c-0.1-0.1-0.2-0.1-0.4-0.2C251.4,35.3,251.2,35.3,251.1,35.3z"/>
				</g>
				<g id="XMLID_2657_">
					<path id="XMLID_2663_" d="M156.3,53.1c0,0.6-0.2,1-0.5,1.4c-0.4,0.3-0.8,0.5-1.4,0.5h-1.7c-0.1,0-0.1,0-0.1,0c0,0,0,0,0-0.1
						v-6.6c0-0.1,0-0.1,0-0.1c0,0,0.1,0,0.1,0h1.7c0.6,0,1.1,0.2,1.4,0.5c0.4,0.3,0.5,0.8,0.5,1.4V53.1z M155.6,50.1
						c0-0.3,0-0.5-0.1-0.7c-0.1-0.2-0.2-0.3-0.3-0.4c-0.1-0.1-0.3-0.2-0.4-0.2c-0.1,0-0.3,0-0.4,0h-1.1v5.4h1.1c0.1,0,0.2,0,0.4,0
						c0.1,0,0.3-0.1,0.4-0.2c0.1-0.1,0.2-0.2,0.3-0.4c0.1-0.2,0.1-0.4,0.1-0.7V50.1z"/>
					<path id="XMLID_2658_" d="M154.3,55.1h-1.7c-0.1,0-0.1,0-0.2,0c-0.1,0-0.1-0.1-0.1-0.2v-6.6c0-0.1,0-0.2,0.1-0.2
						c0,0,0.1,0,0.2,0h1.7c0.6,0,1.1,0.2,1.5,0.5c0.4,0.3,0.6,0.8,0.6,1.5v3.1c0,0.6-0.2,1.1-0.6,1.5
						C155.4,54.9,154.9,55.1,154.3,55.1z M152.6,54.9C152.6,54.9,152.6,54.9,152.6,54.9l1.7,0c0.6,0,1-0.2,1.3-0.5
						c0.3-0.3,0.5-0.7,0.5-1.3V50c0-0.6-0.2-1-0.5-1.3c-0.3-0.3-0.8-0.5-1.3-0.5h-1.7h0c0,0,0,0,0,0V54.9L152.6,54.9z M154.3,54.4
						h-1.2v-5.7h1.2c0.1,0,0.3,0,0.4,0c0.2,0,0.3,0.1,0.5,0.2c0.1,0.1,0.3,0.2,0.4,0.4c0.1,0.2,0.1,0.4,0.1,0.7V53
						c0,0.3,0,0.5-0.1,0.7c-0.1,0.2-0.2,0.3-0.4,0.4c-0.1,0.1-0.3,0.2-0.5,0.2C154.6,54.4,154.4,54.4,154.3,54.4z M153.3,54.2h1
						c0.1,0,0.2,0,0.4,0c0.1,0,0.3-0.1,0.4-0.2c0.1-0.1,0.2-0.2,0.3-0.3c0.1-0.1,0.1-0.3,0.1-0.6v-2.9c0-0.3,0-0.5-0.1-0.6
						c-0.1-0.1-0.2-0.3-0.3-0.3c-0.1-0.1-0.2-0.1-0.4-0.2c-0.1,0-0.3,0-0.4,0h-1V54.2z"/>
				</g>
				<g id="XMLID_2651_">
					<path id="XMLID_2655_" d="M163.2,54.9c0,0.1,0,0.1,0,0.1c0,0-0.1,0-0.1,0h-3.2c-0.1,0-0.1,0-0.1,0c0,0,0,0,0-0.1v-6.6
						c0-0.1,0-0.1,0-0.1c0,0,0.1,0,0.1,0h3.1c0.1,0,0.1,0,0.1,0s0,0,0,0.1v0.4c0,0.1,0,0.1,0,0.1c0,0-0.1,0-0.1,0h-2.5v2.1h2.5
						c0.1,0,0.1,0,0.1,0c0,0,0,0,0,0.1v0.4c0,0.1,0,0.1,0,0.1c0,0-0.1,0-0.1,0h-2.4v2.7h2.7c0.1,0,0.1,0,0.1,0c0,0,0,0,0,0.1V54.9z"
						/>
					<path id="XMLID_2652_" d="M163.1,55.1h-3.2c-0.1,0-0.1,0-0.2,0c-0.1,0-0.1-0.1-0.1-0.2v-6.6c0-0.1,0-0.2,0.1-0.2
						c0,0,0.1,0,0.2,0h3.1c0.1,0,0.1,0,0.2,0c0.1,0,0.1,0.1,0.1,0.2v0.4c0,0.1,0,0.2-0.1,0.2c0,0-0.1,0-0.2,0h-2.4v1.8h2.3
						c0.1,0,0.1,0,0.2,0c0.1,0,0.1,0.1,0.1,0.2v0.4c0,0.1,0,0.2-0.1,0.2c0,0-0.1,0-0.2,0h-2.3v2.4h2.6c0.1,0,0.1,0,0.2,0
						c0.1,0,0.1,0.1,0.1,0.2v0.4c0,0.1,0,0.2-0.1,0.2C163.2,55.1,163.1,55.1,163.1,55.1z M159.8,54.9
						C159.8,54.9,159.8,54.9,159.8,54.9l3.3,0c0,0,0,0,0,0v0v-0.4v0c0,0,0,0,0,0h-2.8v-2.9h2.6h0v0v-0.4v0l0,0h-2.6v-2.3h2.6
						c0,0,0,0,0,0v0v-0.4c0,0,0,0,0,0l0,0h-3.1h0c0,0,0,0,0,0V54.9L159.8,54.9z"/>
				</g>
				<g id="XMLID_2645_">
					<path id="XMLID_2649_" d="M173.6,54.9c0,0.1,0,0.1,0,0.1c0,0-0.1,0-0.1,0H171c-0.1,0-0.1,0-0.1,0c0,0,0,0,0-0.1v-0.4
						c0-0.1,0-0.1,0-0.1c0,0,0.1,0,0.1,0h0.9v-5.4H171c-0.1,0-0.1,0-0.1,0c0,0,0,0,0-0.1v-0.4c0-0.1,0-0.1,0-0.1c0,0,0.1,0,0.1,0
						h2.5c0.1,0,0.1,0,0.1,0s0,0,0,0.1v0.4c0,0.1,0,0.1,0,0.1c0,0-0.1,0-0.1,0h-0.9v5.4h0.9c0.1,0,0.1,0,0.1,0c0,0,0,0,0,0.1V54.9z"
						/>
					<path id="XMLID_2646_" d="M173.5,55.1H171c-0.1,0-0.1,0-0.2,0c-0.1,0-0.1-0.1-0.1-0.2v-0.4c0-0.1,0-0.2,0.1-0.2
						c0,0,0.1,0,0.2,0h0.8V49H171c-0.1,0-0.1,0-0.2,0c-0.1,0-0.1-0.1-0.1-0.2v-0.4c0-0.1,0-0.2,0.1-0.2c0,0,0.1,0,0.2,0h2.5
						c0.1,0,0.1,0,0.2,0c0.1,0,0.1,0.1,0.1,0.2v0.4c0,0.1,0,0.2-0.1,0.2c0,0-0.1,0-0.2,0h-0.8v5.2h0.8c0.1,0,0.1,0,0.2,0
						c0.1,0,0.1,0.1,0.1,0.2v0.4c0,0.1,0,0.2-0.1,0.2C173.7,55.1,173.6,55.1,173.5,55.1z M171,54.9C171,54.9,171,54.9,171,54.9
						l2.5,0h0c0,0,0,0,0,0v-0.4v0l0,0h-1v-5.7h1h0l0,0v-0.4c0,0,0,0,0,0l0,0H171h0c0,0,0,0,0,0v0.4v0c0,0,0,0,0,0h1v5.7h-1l0,0v0
						V54.9L171,54.9z"/>
				</g>
				<g id="XMLID_2638_">
					<path id="XMLID_2643_" d="M181.2,54.9C181.2,54.9,181.2,54.9,181.2,54.9C181.2,55,181.1,55,181.2,54.9l-1,0.1
						c0,0-0.1,0-0.1-0.1l-2.2-5.3c0-0.1-0.1-0.2-0.1-0.3c0-0.1-0.1-0.2-0.1-0.3c0-0.1-0.1-0.2-0.1-0.3c0-0.1-0.1-0.2-0.1-0.2
						c0,0.1,0,0.2,0,0.5c0,0.2,0,0.5,0,0.7v5.1c0,0.1,0,0.1,0,0.1c0,0-0.1,0-0.1,0H177c-0.1,0-0.1,0-0.1,0c0,0,0,0,0-0.1v-6.6
						c0,0,0,0,0,0s0,0,0.1,0h0.9c0,0,0.1,0,0.1,0.1l2.1,5c0.1,0.1,0.1,0.3,0.2,0.4c0,0.1,0.1,0.2,0.1,0.3c0,0.1,0.1,0.2,0.1,0.3
						c0,0.1,0.1,0.2,0.1,0.3c0-0.3,0-0.6,0-0.8c0-0.2,0-0.4,0-0.5v-5c0-0.1,0-0.1,0-0.1c0,0,0.1,0,0.1,0h0.4c0.1,0,0.1,0,0.1,0
						c0,0,0,0,0,0.1V54.9z"/>
					<path id="XMLID_2639_" d="M180.7,55.4l-0.1-0.3h-0.4c-0.1,0-0.2-0.1-0.2-0.1l-2.2-5.3c0-0.1-0.1-0.1-0.1-0.2c0,0.1,0,0.2,0,0.3
						v5.1c0,0.1,0,0.2-0.1,0.2c0,0-0.1,0-0.2,0H177c-0.1,0-0.1,0-0.2,0c-0.1,0-0.1-0.1-0.1-0.2v-6.6c0,0,0-0.1,0-0.1
						c0.1-0.1,0.1-0.1,0.2-0.1h0.9c0,0,0.1,0,0.2,0.1l2.1,5c0.1,0.1,0.1,0.3,0.2,0.4c0,0,0,0.1,0,0.1c0-0.1,0-0.2,0-0.3v-5
						c0-0.1,0-0.2,0.1-0.2c0,0,0.1,0,0.2,0h0.4c0.1,0,0.1,0,0.2,0c0.1,0,0.1,0.1,0.1,0.2v6.6c0,0,0,0.1,0,0.1
						c-0.1,0.1-0.1,0.1-0.2,0.1h-0.4L180.7,55.4z M177.6,48.5c0,0,0,0.1,0.1,0.2c0,0.1,0.1,0.2,0.1,0.3c0,0.1,0.1,0.2,0.1,0.3
						c0,0.1,0.1,0.2,0.1,0.3l2.2,5.3l0.4,0l-0.1-0.3c0-0.1-0.1-0.2-0.1-0.3c0-0.1-0.1-0.2-0.1-0.3c0-0.1-0.1-0.2-0.1-0.3
						c0-0.1-0.1-0.2-0.2-0.4l-2.1-5l-0.9,0l0,6.6v0l0,0h0.4h0c0,0,0,0,0,0v-5.1c0-0.2,0-0.5,0-0.7c0-0.2,0-0.4,0-0.5L177.6,48.5z
						 M180.6,48.3C180.6,48.3,180.6,48.3,180.6,48.3v5c0,0.1,0,0.3,0,0.5c0,0.2,0,0.5,0,0.8l0,0.3l0.4,0v-6.6c0,0,0,0,0,0l0,0H180.6
						L180.6,48.3z"/>
				</g>
				<g id="XMLID_2631_">
					<path id="XMLID_2636_" d="M189,54.9C189,54.9,189,54.9,189,54.9C189,55,188.9,55,189,54.9l-1,0.1c0,0-0.1,0-0.1-0.1l-2.2-5.3
						c0-0.1-0.1-0.2-0.1-0.3c0-0.1-0.1-0.2-0.1-0.3c0-0.1-0.1-0.2-0.1-0.3c0-0.1-0.1-0.2-0.1-0.2c0,0.1,0,0.2,0,0.5
						c0,0.2,0,0.5,0,0.7v5.1c0,0.1,0,0.1,0,0.1c0,0-0.1,0-0.1,0h-0.4c-0.1,0-0.1,0-0.1,0c0,0,0,0,0-0.1v-6.6c0,0,0,0,0,0s0,0,0.1,0
						h0.9c0,0,0.1,0,0.1,0.1l2.1,5c0.1,0.1,0.1,0.3,0.2,0.4c0,0.1,0.1,0.2,0.1,0.3c0,0.1,0.1,0.2,0.1,0.3c0,0.1,0.1,0.2,0.1,0.3
						c0-0.3,0-0.6,0-0.8c0-0.2,0-0.4,0-0.5v-5c0-0.1,0-0.1,0-0.1c0,0,0.1,0,0.1,0h0.4c0.1,0,0.1,0,0.1,0c0,0,0,0,0,0.1V54.9z"/>
					<path id="XMLID_2632_" d="M188.5,55.4l-0.1-0.3H188c-0.1,0-0.2-0.1-0.2-0.1l-2.2-5.3c0-0.1-0.1-0.1-0.1-0.2c0,0.1,0,0.2,0,0.3
						v5.1c0,0.1,0,0.2-0.1,0.2c0,0-0.1,0-0.2,0h-0.4c-0.1,0-0.1,0-0.2,0c-0.1,0-0.1-0.1-0.1-0.2v-6.6c0,0,0-0.1,0-0.1
						c0.1-0.1,0.1-0.1,0.2-0.1h0.9c0,0,0.1,0,0.2,0.1l2.1,5c0.1,0.1,0.1,0.3,0.2,0.4c0,0,0,0.1,0,0.1c0-0.1,0-0.2,0-0.3v-5
						c0-0.1,0-0.2,0.1-0.2c0,0,0.1,0,0.2,0h0.4c0.1,0,0.1,0,0.2,0c0.1,0,0.1,0.1,0.1,0.2v6.6c0,0,0,0.1,0,0.1
						c-0.1,0.1-0.1,0.1-0.2,0.1h-0.4L188.5,55.4z M185.4,48.5c0,0,0,0.1,0.1,0.2c0,0.1,0.1,0.2,0.1,0.3c0,0.1,0.1,0.2,0.1,0.3
						c0,0.1,0.1,0.2,0.1,0.3l2.2,5.3l0.4,0l-0.1-0.3c0-0.1-0.1-0.2-0.1-0.3c0-0.1-0.1-0.2-0.1-0.3c0-0.1-0.1-0.2-0.1-0.3
						c0-0.1-0.1-0.2-0.2-0.4l-2.1-5l-0.9,0l0,6.6v0l0,0h0.4h0c0,0,0,0,0,0v-5.1c0-0.2,0-0.5,0-0.7c0-0.2,0-0.4,0-0.5L185.4,48.5z
						 M188.4,48.3C188.4,48.3,188.4,48.3,188.4,48.3v5c0,0.1,0,0.3,0,0.5c0,0.2,0,0.5,0,0.8l0,0.3l0.4,0v-6.6c0,0,0,0,0,0l0,0H188.4
						L188.4,48.3z"/>
				</g>
				<g id="XMLID_2622_">
					<path id="XMLID_2628_" d="M196.4,53.2c0,0.6-0.2,1-0.5,1.4c-0.4,0.3-0.8,0.5-1.4,0.5c-0.6,0-1.1-0.2-1.4-0.5
						c-0.4-0.3-0.5-0.8-0.5-1.4v-3.3c0-0.6,0.2-1,0.5-1.3c0.4-0.3,0.8-0.5,1.4-0.5c0.6,0,1.1,0.2,1.4,0.5c0.4,0.3,0.5,0.8,0.5,1.3
						V53.2z M195.7,50.1c0-0.3,0-0.5-0.1-0.7c-0.1-0.2-0.2-0.3-0.3-0.4c-0.1-0.1-0.3-0.2-0.4-0.2c-0.1,0-0.3,0-0.4,0
						c-0.1,0-0.3,0-0.4,0c-0.1,0-0.3,0.1-0.4,0.2c-0.1,0.1-0.2,0.2-0.3,0.4c-0.1,0.2-0.1,0.4-0.1,0.7v3.1c0,0.3,0,0.5,0.1,0.7
						c0.1,0.2,0.2,0.3,0.3,0.4c0.1,0.1,0.3,0.2,0.4,0.2c0.1,0,0.3,0,0.4,0c0.1,0,0.2,0,0.4,0c0.1,0,0.3-0.1,0.4-0.2
						c0.1-0.1,0.2-0.2,0.3-0.4c0.1-0.2,0.1-0.4,0.1-0.7V50.1z"/>
					<path id="XMLID_2623_" d="M194.4,55.2c-0.6,0-1.1-0.2-1.5-0.5c-0.4-0.3-0.6-0.8-0.6-1.5v-3.3c0-0.6,0.2-1.1,0.6-1.4
						c0.4-0.3,0.9-0.5,1.5-0.5c0.6,0,1.1,0.2,1.5,0.5c0.4,0.3,0.6,0.8,0.6,1.4v3.3c0,0.6-0.2,1.1-0.6,1.5
						C195.6,55,195.1,55.2,194.4,55.2z M194.4,48.2c-0.6,0-1,0.2-1.4,0.4c-0.3,0.3-0.5,0.7-0.5,1.3v3.3c0,0.6,0.2,1,0.5,1.3
						c0.3,0.3,0.8,0.5,1.4,0.5c0.6,0,1-0.2,1.3-0.5c0.3-0.3,0.5-0.7,0.5-1.3v-3.3c0-0.5-0.2-1-0.5-1.3
						C195.5,48.4,195,48.2,194.4,48.2z M194.4,54.5c-0.1,0-0.3,0-0.4,0c-0.2,0-0.3-0.1-0.5-0.2c-0.1-0.1-0.3-0.2-0.4-0.4
						c-0.1-0.2-0.1-0.4-0.1-0.7v-3.1c0-0.3,0-0.5,0.1-0.7c0.1-0.2,0.2-0.3,0.4-0.4c0.1-0.1,0.3-0.2,0.5-0.2c0.3-0.1,0.5-0.1,0.8,0
						c0.2,0,0.3,0.1,0.5,0.2c0.1,0.1,0.3,0.2,0.4,0.4c0.1,0.2,0.1,0.4,0.1,0.7v3.1c0,0.3,0,0.5-0.1,0.7c-0.1,0.2-0.2,0.3-0.4,0.4
						c-0.1,0.1-0.3,0.2-0.5,0.2C194.7,54.5,194.6,54.5,194.4,54.5z M194.4,48.9c-0.1,0-0.2,0-0.4,0c-0.1,0-0.3,0.1-0.4,0.2
						c-0.1,0.1-0.2,0.2-0.3,0.3c-0.1,0.1-0.1,0.3-0.1,0.6v3.1c0,0.3,0,0.5,0.1,0.6c0.1,0.1,0.2,0.3,0.3,0.3c0.1,0.1,0.2,0.1,0.4,0.2
						c0.3,0.1,0.5,0.1,0.7,0c0.1,0,0.3-0.1,0.4-0.2c0.1-0.1,0.2-0.2,0.3-0.3c0.1-0.1,0.1-0.3,0.1-0.6v-3.1c0-0.3,0-0.5-0.1-0.6
						c-0.1-0.1-0.2-0.3-0.3-0.3c-0.1-0.1-0.2-0.1-0.4-0.2C194.7,48.9,194.5,48.9,194.4,48.9z"/>
				</g>
				<g id="XMLID_2615_">
					<path id="XMLID_2620_" d="M202.2,54.9C202.2,54.9,202.2,55,202.2,54.9c-0.1,0.1-0.1,0.1-0.1,0.1h-0.7c0,0-0.1,0-0.1,0
						c0,0,0,0,0-0.1l-1.9-6.6c0-0.1,0-0.1,0.1-0.1h0.5c0.1,0,0.1,0,0.1,0c0,0,0,0,0,0.1l1.4,4.9c0.1,0.2,0.1,0.4,0.2,0.6
						c0,0.2,0.1,0.5,0.1,0.8c0-0.3,0.1-0.6,0.1-0.8c0-0.2,0.1-0.4,0.2-0.6l1.4-4.9c0,0,0-0.1,0-0.1c0,0,0.1,0,0.1,0h0.5
						c0.1,0,0.1,0,0.1,0.1L202.2,54.9z"/>
					<path id="XMLID_2616_" d="M201.7,55.5l-0.1-0.4h-0.3c-0.1,0-0.1,0-0.1,0c-0.1,0-0.1-0.1-0.1-0.1l-1.9-6.6c0-0.1,0-0.2,0-0.2
						c0,0,0.1-0.1,0.2-0.1h0.5c0.1,0,0.1,0,0.2,0.1c0,0,0,0.1,0.1,0.1l1.4,4.9c0.1,0.2,0.1,0.4,0.2,0.6c0,0,0,0.1,0,0.1
						c0,0,0-0.1,0-0.1c0-0.2,0.1-0.4,0.2-0.6l1.4-4.9c0-0.1,0-0.1,0.1-0.1c0,0,0.1-0.1,0.2-0.1h0.5c0.1,0,0.2,0,0.2,0.1
						c0,0,0.1,0.1,0,0.2l-1.9,6.6c0,0,0,0.1-0.1,0.1c0,0-0.1,0-0.1,0h-0.3L201.7,55.5z M201.8,54.9l0.3,0l1.9-6.6l-0.4,0
						c0,0,0,0,0,0c0,0,0,0,0,0l-1.4,4.9c-0.1,0.2-0.1,0.4-0.2,0.6c0,0.2-0.1,0.5-0.1,0.8L201.8,54.9z M201.4,54.9h0.3l0-0.3
						c0-0.3-0.1-0.6-0.1-0.8c0-0.2-0.1-0.4-0.2-0.6l-1.4-4.9c0,0,0,0,0,0c0,0,0,0,0,0h-0.4L201.4,54.9z"/>
				</g>
				<g id="XMLID_2607_">
					<path id="XMLID_2612_" d="M211.3,54.9C211.3,54.9,211.3,55,211.3,54.9C211.3,55,211.3,55,211.3,54.9l-0.6,0.1c0,0-0.1,0-0.1,0
						c0,0,0,0,0-0.1l-0.7-2.2h-2.1l-0.7,2.2c0,0.1,0,0.1,0,0.1c0,0-0.1,0-0.1,0h-0.5c0,0,0,0,0,0c0,0,0,0,0-0.1l1.9-6.7
						c0,0,0-0.1,0-0.1c0,0,0,0,0.1,0h0.8c0,0,0.1,0,0.1,0c0,0,0,0,0,0.1L211.3,54.9z M209.1,49.8c-0.1-0.2-0.1-0.5-0.2-0.6
						c0-0.2-0.1-0.3-0.1-0.5c0,0.2-0.1,0.3-0.1,0.5c0,0.2-0.1,0.4-0.2,0.6l-0.6,2.2h1.7L209.1,49.8z"/>
					<path id="XMLID_2608_" d="M211.2,55.1h-0.5c-0.1,0-0.1,0-0.1,0c-0.1,0-0.1-0.1-0.1-0.2l-0.6-2.2h-1.9l-0.6,2.2
						c0,0.1,0,0.1-0.1,0.2c0,0-0.1,0-0.1,0h-0.5c0,0-0.1,0-0.1,0c-0.1-0.1,0-0.2,0-0.2l1.9-6.7c0-0.1,0-0.1,0.1-0.1c0,0,0.1,0,0.1,0
						h0.4l0-0.2l0,0.2h0.3c0.1,0,0.1,0,0.1,0c0,0,0,0,0.1,0.1l1.9,6.7c0,0,0,0.1,0,0.2C211.3,55.1,211.3,55.1,211.2,55.1z
						 M210.7,54.9C210.7,54.9,210.7,54.9,210.7,54.9l0.5,0l-1.9-6.6l-0.3,0l0,0.4c0,0.2,0,0.3,0.1,0.5c0,0.2,0.1,0.4,0.2,0.6l0,0
						l0.6,2.3h-2l0.7-2.3c0.1-0.2,0.1-0.4,0.2-0.6c0-0.2,0.1-0.3,0.1-0.5l0.1-0.4l-0.3,0l-1.9,6.6l0.4,0c0,0,0,0,0,0c0,0,0,0,0,0
						l0.7-2.3h2.3L210.7,54.9C210.7,54.9,210.7,54.9,210.7,54.9z M208.1,51.8h1.4l-0.6-2c-0.1-0.2-0.1-0.4-0.1-0.5
						c0,0.2-0.1,0.3-0.1,0.5L208.1,51.8z"/>
				</g>
				<g id="XMLID_2601_">
					<path id="XMLID_2605_" d="M217.9,53.3c0,0.6-0.2,1-0.5,1.3c-0.4,0.3-0.8,0.5-1.4,0.5c-0.6,0-1.1-0.2-1.4-0.5
						c-0.4-0.3-0.5-0.8-0.5-1.4v-3.3c0-0.6,0.2-1,0.5-1.3c0.4-0.3,0.8-0.5,1.4-0.5c0.6,0,1.1,0.2,1.4,0.5c0.4,0.3,0.5,0.8,0.5,1.3
						c0,0.1,0,0.1-0.1,0.1l-0.5,0c-0.1,0-0.1,0-0.1-0.1c0-0.2-0.1-0.4-0.2-0.6c-0.1-0.2-0.2-0.3-0.3-0.4c-0.1-0.1-0.3-0.1-0.4-0.2
						c-0.1,0-0.3,0-0.4,0c-0.1,0-0.3,0-0.4,0c-0.1,0-0.3,0.1-0.4,0.2c-0.1,0.1-0.2,0.2-0.3,0.4c-0.1,0.2-0.1,0.4-0.1,0.7v3.1
						c0,0.3,0,0.5,0.1,0.7c0.1,0.2,0.2,0.3,0.3,0.4c0.1,0.1,0.3,0.2,0.4,0.2c0.1,0,0.3,0,0.4,0c0.1,0,0.2,0,0.4,0
						c0.1,0,0.3-0.1,0.4-0.2c0.1-0.1,0.2-0.2,0.3-0.3c0.1-0.1,0.1-0.3,0.2-0.6c0-0.1,0-0.1,0.1-0.1l0.5,0
						C217.9,53.2,217.9,53.2,217.9,53.3z"/>
					<path id="XMLID_2602_" d="M216,55.2c-0.6,0-1.1-0.2-1.5-0.5c-0.4-0.3-0.6-0.8-0.6-1.5v-3.3c0-0.6,0.2-1.1,0.6-1.4
						c0.4-0.3,0.9-0.5,1.5-0.5c0.6,0,1.1,0.2,1.5,0.5c0.4,0.3,0.6,0.8,0.6,1.4c0,0.2-0.1,0.2-0.2,0.2l-0.5,0h0
						c-0.1,0-0.2-0.1-0.2-0.2c0-0.2-0.1-0.4-0.1-0.5c-0.1-0.1-0.2-0.2-0.3-0.3c-0.1-0.1-0.2-0.1-0.4-0.2c-0.3-0.1-0.5-0.1-0.7,0
						c-0.1,0-0.3,0.1-0.4,0.2c-0.1,0.1-0.2,0.2-0.3,0.3c-0.1,0.1-0.1,0.3-0.1,0.6v3.1c0,0.3,0,0.5,0.1,0.6c0.1,0.1,0.2,0.3,0.3,0.3
						c0.1,0.1,0.2,0.1,0.4,0.2c0.3,0.1,0.4,0.1,0.7,0c0.1,0,0.2-0.1,0.4-0.1c0.1-0.1,0.2-0.2,0.3-0.3c0.1-0.1,0.1-0.3,0.1-0.5
						c0-0.2,0.1-0.2,0.2-0.2l0.5,0h0c0.1,0,0.2,0.1,0.2,0.2v0c0,0.6-0.2,1.1-0.6,1.4C217.1,55,216.6,55.2,216,55.2z M216,48.2
						c-0.6,0-1,0.2-1.4,0.4c-0.3,0.3-0.5,0.7-0.5,1.3v3.3c0,0.6,0.2,1,0.5,1.3c0.3,0.3,0.8,0.5,1.4,0.5c0.6,0,1-0.1,1.3-0.4
						c0.3-0.3,0.5-0.7,0.5-1.2l0,0l-0.5,0c0,0,0,0,0,0c0,0.3-0.1,0.5-0.2,0.6c-0.1,0.2-0.2,0.3-0.4,0.4c-0.1,0.1-0.3,0.1-0.4,0.2
						c-0.3,0.1-0.5,0.1-0.8,0c-0.2,0-0.3-0.1-0.5-0.2c-0.1-0.1-0.3-0.2-0.4-0.4c-0.1-0.2-0.1-0.4-0.1-0.7v-3.1c0-0.3,0-0.5,0.1-0.7
						c0.1-0.2,0.2-0.3,0.4-0.4c0.1-0.1,0.3-0.2,0.5-0.2c0.3-0.1,0.5-0.1,0.8,0c0.2,0,0.3,0.1,0.4,0.2c0.1,0.1,0.3,0.2,0.4,0.4
						c0.1,0.2,0.2,0.4,0.2,0.7l0.5,0c0-0.5-0.2-0.9-0.5-1.2C217,48.4,216.5,48.2,216,48.2z"/>
				</g>
				<g id="XMLID_2595_">
					<path id="XMLID_2599_" d="M223.7,54.9c0,0.1,0,0.1,0,0.1c0,0-0.1,0-0.1,0H221c-0.1,0-0.1,0-0.1,0c0,0,0,0,0-0.1v-0.4
						c0-0.1,0-0.1,0-0.1c0,0,0.1,0,0.1,0h0.9v-5.4H221c-0.1,0-0.1,0-0.1,0c0,0,0,0,0-0.1v-0.4c0-0.1,0-0.1,0-0.1s0.1,0,0.1,0h2.5
						c0.1,0,0.1,0,0.1,0c0,0,0,0,0,0.1v0.4c0,0.1,0,0.1,0,0.1c0,0-0.1,0-0.1,0h-0.9v5.4h0.9c0.1,0,0.1,0,0.1,0c0,0,0,0,0,0.1V54.9z"
						/>
					<path id="XMLID_2596_" d="M223.5,55.1H221c-0.1,0-0.1,0-0.2,0c-0.1,0-0.1-0.1-0.1-0.2v-0.4c0-0.1,0-0.2,0.1-0.2
						c0,0,0.1,0,0.2,0h0.8V49H221c-0.1,0-0.1,0-0.2,0c-0.1,0-0.1-0.1-0.1-0.2v-0.4c0-0.1,0-0.2,0.1-0.2c0,0,0.1,0,0.2,0h2.5
						c0.1,0,0.1,0,0.2,0c0.1,0,0.1,0.1,0.1,0.2v0.4c0,0.1,0,0.2-0.1,0.2c0,0-0.1,0-0.2,0h-0.8v5.2h0.8c0.1,0,0.1,0,0.2,0
						c0.1,0,0.1,0.1,0.1,0.2v0.4c0,0.1,0,0.2-0.1,0.2C223.7,55.1,223.6,55.1,223.5,55.1z M221,54.9L221,54.9l2.5,0c0,0,0,0,0,0v0
						v-0.4v0l0,0h-1v-5.7h1h0v0v-0.4c0,0,0,0,0,0c0,0,0,0,0,0H221h0c0,0,0,0,0,0v0.4v0l0,0h1v5.7h-1h0l0,0V54.9L221,54.9z"/>
				</g>
				<g id="XMLID_2583_">
					<path id="XMLID_2591_" d="M230.8,53.2c0,0.6-0.2,1-0.5,1.4c-0.4,0.3-0.8,0.5-1.4,0.5c-0.6,0-1.1-0.2-1.4-0.5
						c-0.4-0.3-0.5-0.8-0.5-1.4v-3.3c0-0.6,0.2-1,0.5-1.3c0.4-0.3,0.8-0.5,1.4-0.5c0.6,0,1.1,0.2,1.4,0.5c0.4,0.3,0.5,0.8,0.5,1.3
						V53.2z M230.1,50.1c0-0.3,0-0.5-0.1-0.7c-0.1-0.2-0.2-0.3-0.3-0.4c-0.1-0.1-0.3-0.2-0.4-0.2c-0.1,0-0.3,0-0.4,0
						c-0.1,0-0.3,0-0.4,0c-0.1,0-0.3,0.1-0.4,0.2c-0.1,0.1-0.2,0.2-0.3,0.4c-0.1,0.2-0.1,0.4-0.1,0.7v3.1c0,0.3,0,0.5,0.1,0.7
						c0.1,0.2,0.2,0.3,0.3,0.4c0.1,0.1,0.3,0.2,0.4,0.2c0.1,0,0.3,0,0.4,0c0.1,0,0.2,0,0.4,0c0.1,0,0.3-0.1,0.4-0.2
						c0.1-0.1,0.2-0.2,0.3-0.4c0.1-0.2,0.1-0.4,0.1-0.7V50.1z M230.2,46.9C230.2,46.9,230.2,46.9,230.2,46.9c0,0.1,0,0.1,0,0.1
						l-1.8,0.7c-0.1,0-0.1,0-0.1,0c0,0,0,0,0-0.1l-0.1-0.3c0-0.1,0-0.1,0-0.1c0,0,0,0,0.1-0.1l1.7-0.9c0.1,0,0.1,0,0.1,0
						c0,0,0,0,0.1,0.1L230.2,46.9z"/>
					<path id="XMLID_2584_" d="M228.9,55.2c-0.6,0-1.1-0.2-1.5-0.5c-0.4-0.3-0.6-0.8-0.6-1.5v-3.3c0-0.6,0.2-1.1,0.6-1.4
						c0.4-0.3,0.9-0.5,1.5-0.5c0.6,0,1.1,0.2,1.5,0.5c0.4,0.3,0.6,0.8,0.6,1.4v3.3c0,0.6-0.2,1.1-0.6,1.5
						C230,55,229.5,55.2,228.9,55.2z M228.9,48.2c-0.6,0-1,0.2-1.4,0.4c-0.3,0.3-0.5,0.7-0.5,1.3v3.3c0,0.6,0.2,1,0.5,1.3
						c0.3,0.3,0.8,0.5,1.4,0.5c0.6,0,1-0.2,1.3-0.5c0.3-0.3,0.5-0.7,0.5-1.3v-3.3c0-0.5-0.2-1-0.5-1.3
						C229.9,48.4,229.4,48.2,228.9,48.2z M228.9,54.5c-0.1,0-0.3,0-0.4,0c-0.2,0-0.3-0.1-0.5-0.2c-0.1-0.1-0.3-0.2-0.4-0.4
						c-0.1-0.2-0.1-0.4-0.1-0.7v-3.1c0-0.3,0-0.5,0.1-0.7c0.1-0.2,0.2-0.3,0.4-0.4c0.1-0.1,0.3-0.2,0.5-0.2c0.3-0.1,0.5-0.1,0.8,0
						c0.2,0,0.3,0.1,0.5,0.2c0.1,0.1,0.3,0.2,0.4,0.4c0.1,0.2,0.1,0.4,0.1,0.7v3.1c0,0.3,0,0.5-0.1,0.7c-0.1,0.2-0.2,0.3-0.4,0.4
						c-0.1,0.1-0.3,0.2-0.5,0.2C229.1,54.5,229,54.5,228.9,54.5z M228.9,48.9c-0.1,0-0.2,0-0.4,0c-0.1,0-0.3,0.1-0.4,0.2
						c-0.1,0.1-0.2,0.2-0.3,0.3c-0.1,0.1-0.1,0.3-0.1,0.6v3.1c0,0.3,0,0.5,0.1,0.6c0.1,0.1,0.2,0.3,0.3,0.3c0.1,0.1,0.2,0.1,0.4,0.2
						c0.3,0.1,0.5,0.1,0.7,0c0.1,0,0.3-0.1,0.4-0.2c0.1-0.1,0.2-0.2,0.3-0.3c0.1-0.1,0.1-0.3,0.1-0.6v-3.1c0-0.3,0-0.5-0.1-0.6
						c-0.1-0.1-0.2-0.3-0.3-0.3c-0.1-0.1-0.2-0.1-0.4-0.2C229.1,48.9,229,48.9,228.9,48.9z M228.2,47.9
						C228.2,47.9,228.2,47.9,228.2,47.9c-0.1,0-0.2-0.1-0.2-0.2l-0.1-0.3c0-0.1-0.1-0.1,0-0.2c0,0,0.1-0.1,0.1-0.1l1.7-0.9
						c0.1,0,0.1-0.1,0.2,0c0,0,0.1,0.1,0.1,0.2l0.2,0.5c0,0.1,0,0.1,0,0.2c0,0.1-0.1,0.1-0.1,0.1l-1.8,0.7
						C228.3,47.8,228.3,47.9,228.2,47.9z M228.1,47.3C228.1,47.3,228.1,47.3,228.1,47.3l0.2,0.3h0l1.8-0.7l-0.2-0.5l0,0L228.1,47.3
						L228.1,47.3z"/>
				</g>
				<g id="XMLID_2576_">
					<path id="XMLID_2581_" d="M238.6,54.9C238.6,54.9,238.6,54.9,238.6,54.9C238.5,55,238.5,55,238.6,54.9l-1,0.1
						c0,0-0.1,0-0.1-0.1l-2.2-5.3c0-0.1-0.1-0.2-0.1-0.3c0-0.1-0.1-0.2-0.1-0.3c0-0.1-0.1-0.2-0.1-0.3c0-0.1-0.1-0.2-0.1-0.2
						c0,0.1,0,0.2,0,0.5c0,0.2,0,0.5,0,0.7v5.1c0,0.1,0,0.1,0,0.1c0,0-0.1,0-0.1,0h-0.4c-0.1,0-0.1,0-0.1,0c0,0,0,0,0-0.1v-6.6
						c0,0,0,0,0,0s0,0,0.1,0h0.9c0,0,0.1,0,0.1,0.1l2.1,5c0.1,0.1,0.1,0.3,0.2,0.4c0,0.1,0.1,0.2,0.1,0.3c0,0.1,0.1,0.2,0.1,0.3
						c0,0.1,0.1,0.2,0.1,0.3c0-0.3,0-0.6,0-0.8c0-0.2,0-0.4,0-0.5v-5c0-0.1,0-0.1,0-0.1c0,0,0.1,0,0.1,0h0.4c0.1,0,0.1,0,0.1,0
						s0,0,0,0.1V54.9z"/>
					<path id="XMLID_2577_" d="M238.1,55.4l-0.1-0.3h-0.4c-0.1,0-0.2-0.1-0.2-0.1l-2.2-5.3c0-0.1-0.1-0.1-0.1-0.2c0,0.1,0,0.2,0,0.3
						v5.1c0,0.1,0,0.2-0.1,0.2c0,0-0.1,0-0.2,0h-0.4c-0.1,0-0.1,0-0.2,0c-0.1,0-0.1-0.1-0.1-0.2v-6.6c0,0,0-0.1,0-0.1
						c0.1-0.1,0.1-0.1,0.2-0.1h0.9c0,0,0.1,0,0.2,0.1l2.1,5c0.1,0.1,0.1,0.3,0.2,0.4c0,0,0,0.1,0,0.1c0-0.1,0-0.2,0-0.3v-5
						c0-0.1,0-0.2,0.1-0.2c0,0,0.1,0,0.2,0h0.4c0.1,0,0.1,0,0.2,0c0.1,0,0.1,0.1,0.1,0.2v6.6c0,0,0,0.1,0,0.1
						c-0.1,0.1-0.1,0.1-0.2,0.1h-0.4L238.1,55.4z M235,48.5c0,0,0,0.1,0.1,0.2c0,0.1,0.1,0.2,0.1,0.3c0,0.1,0.1,0.2,0.1,0.3
						c0,0.1,0.1,0.2,0.1,0.3l2.2,5.3l0.4,0l-0.1-0.3c0-0.1-0.1-0.2-0.1-0.3c0-0.1-0.1-0.2-0.1-0.3c0-0.1-0.1-0.2-0.1-0.3
						c0-0.1-0.1-0.2-0.2-0.4l-2.1-5l-0.9,0l0,6.6v0l0,0h0.4l0,0v0v-5.1c0-0.2,0-0.5,0-0.7c0-0.2,0-0.4,0-0.5L235,48.5z M238,48.3
						C238,48.3,238,48.3,238,48.3v5c0,0.1,0,0.3,0,0.5c0,0.2,0,0.5,0,0.8l0,0.3l0.4,0v-6.6c0,0,0,0,0,0s0,0,0,0H238L238,48.3z"/>
				</g>
				<g id="XMLID_2570_">
					<path id="XMLID_2574_" d="M154.5,65.1v3.3c0,0.1,0,0.1,0,0.1c0,0-0.1,0-0.1,0H154c-0.1,0-0.1,0-0.1,0c0,0,0,0,0-0.1v-3.3
						l-1.5-3.3c0-0.1,0-0.1,0.1-0.1h0.5c0.1,0,0.1,0,0.1,0c0,0,0,0,0.1,0.1l0.9,1.9c0,0.1,0.1,0.2,0.1,0.2c0,0.1,0,0.1,0.1,0.2
						c0,0.1,0,0.1,0.1,0.2c0,0.1,0,0.2,0.1,0.3c0-0.1,0-0.2,0.1-0.3c0-0.1,0-0.2,0.1-0.2c0-0.1,0-0.1,0.1-0.2c0-0.1,0.1-0.1,0.1-0.2
						l0.9-1.9c0-0.1,0-0.1,0.1-0.1c0,0,0.1,0,0.1,0h0.5c0.1,0,0.1,0,0.1,0.1L154.5,65.1z"/>
					<path id="XMLID_2571_" d="M154.4,68.7H154c-0.1,0-0.1,0-0.2,0c-0.1,0-0.1-0.1-0.1-0.2v-3.3l-1.5-3.2c0-0.1,0-0.2,0-0.2
						c0-0.1,0.1-0.1,0.2-0.1h0.5c0.1,0,0.1,0,0.2,0c0,0,0.1,0.1,0.1,0.2l0.9,1.9c0,0.1,0.1,0.2,0.1,0.2c0,0.1,0,0.1,0.1,0.2
						c0-0.1,0-0.1,0.1-0.2c0-0.1,0.1-0.1,0.1-0.2l0.9-1.9c0-0.1,0.1-0.1,0.1-0.1c0,0,0.1,0,0.2,0h0.5c0.1,0,0.2,0,0.2,0.1
						c0,0,0,0.1,0,0.2l-1.5,3.2v3.3c0,0.1,0,0.2-0.1,0.2C154.5,68.7,154.5,68.7,154.4,68.7z M153.9,68.5L153.9,68.5l0.4,0h0l0,0
						l0-3.4l1.5-3.2l-0.5,0c0,0,0,0-0.1,0c0,0,0,0,0,0l-0.9,1.9c0,0.1-0.1,0.1-0.1,0.2c0,0.1,0,0.1-0.1,0.2c0,0.1,0,0.1-0.1,0.2
						c0,0.1,0,0.2-0.1,0.3l-0.1,0.7l-0.1-0.7c0-0.1,0-0.2-0.1-0.3c0-0.1,0-0.1-0.1-0.2c0-0.1,0-0.1-0.1-0.2c0-0.1-0.1-0.1-0.1-0.2
						l-0.9-1.9c0,0,0,0,0,0c0,0,0,0-0.1,0h-0.4l1.5,3.3V68.5L153.9,68.5z"/>
				</g>
				<g id="XMLID_2564_">
					<path id="XMLID_2568_" d="M168,66.9c0,0.6-0.2,1-0.5,1.3c-0.4,0.3-0.8,0.5-1.4,0.5c-0.6,0-1.1-0.2-1.4-0.5
						c-0.4-0.3-0.5-0.8-0.5-1.4v-3.3c0-0.6,0.2-1,0.5-1.3c0.4-0.3,0.8-0.5,1.4-0.5c0.6,0,1.1,0.2,1.4,0.5c0.4,0.3,0.5,0.8,0.5,1.3
						c0,0.1,0,0.1-0.1,0.1l-0.5,0c-0.1,0-0.1,0-0.1-0.1c0-0.2-0.1-0.4-0.2-0.6c-0.1-0.2-0.2-0.3-0.3-0.4c-0.1-0.1-0.3-0.1-0.4-0.2
						c-0.1,0-0.3,0-0.4,0c-0.1,0-0.3,0-0.4,0c-0.1,0-0.3,0.1-0.4,0.2c-0.1,0.1-0.2,0.2-0.3,0.4c-0.1,0.2-0.1,0.4-0.1,0.7v3.1
						c0,0.3,0,0.5,0.1,0.7c0.1,0.2,0.2,0.3,0.3,0.4c0.1,0.1,0.3,0.2,0.4,0.2c0.1,0,0.3,0,0.4,0c0.1,0,0.2,0,0.4,0
						c0.1,0,0.3-0.1,0.4-0.2c0.1-0.1,0.2-0.2,0.3-0.3c0.1-0.1,0.1-0.3,0.2-0.6c0-0.1,0-0.1,0.1-0.1l0.5,0
						C168,66.8,168,66.8,168,66.9z"/>
					<path id="XMLID_2565_" d="M166.1,68.8c-0.6,0-1.1-0.2-1.5-0.5c-0.4-0.3-0.6-0.8-0.6-1.5v-3.3c0-0.6,0.2-1.1,0.6-1.4
						c0.4-0.3,0.9-0.5,1.5-0.5c0.6,0,1.1,0.2,1.5,0.5c0.4,0.3,0.6,0.8,0.6,1.4c0,0.2-0.1,0.2-0.2,0.2l-0.5,0h0
						c-0.1,0-0.2-0.1-0.2-0.2c0-0.2-0.1-0.4-0.1-0.5c-0.1-0.1-0.2-0.2-0.3-0.3c-0.1-0.1-0.2-0.1-0.4-0.2c-0.3-0.1-0.5-0.1-0.7,0
						c-0.1,0-0.3,0.1-0.4,0.2c-0.1,0.1-0.2,0.2-0.3,0.3c-0.1,0.1-0.1,0.3-0.1,0.6v3.1c0,0.3,0,0.5,0.1,0.6c0.1,0.1,0.2,0.3,0.3,0.3
						c0.1,0.1,0.2,0.1,0.4,0.2c0.3,0.1,0.4,0.1,0.7,0c0.1,0,0.2-0.1,0.4-0.1c0.1-0.1,0.2-0.2,0.3-0.3c0.1-0.1,0.1-0.3,0.1-0.5
						c0-0.2,0.1-0.2,0.2-0.2l0.5,0h0c0.1,0,0.2,0.1,0.2,0.2v0c0,0.6-0.2,1.1-0.6,1.4C167.2,68.6,166.7,68.8,166.1,68.8z M166.1,61.8
						c-0.6,0-1,0.2-1.4,0.4c-0.3,0.3-0.5,0.7-0.5,1.3v3.3c0,0.6,0.2,1,0.5,1.3c0.3,0.3,0.8,0.5,1.4,0.5c0.6,0,1-0.1,1.3-0.4
						c0.3-0.3,0.5-0.7,0.5-1.2c0,0,0,0,0,0l-0.5,0l0,0c0,0.3-0.1,0.5-0.2,0.6c-0.1,0.2-0.2,0.3-0.4,0.4c-0.1,0.1-0.3,0.1-0.4,0.2
						c-0.3,0.1-0.5,0.1-0.8,0c-0.2,0-0.3-0.1-0.5-0.2c-0.1-0.1-0.3-0.2-0.4-0.4c-0.1-0.2-0.1-0.4-0.1-0.7v-3.1c0-0.3,0-0.5,0.1-0.7
						c0.1-0.2,0.2-0.3,0.4-0.4c0.1-0.1,0.3-0.2,0.5-0.2c0.3-0.1,0.5-0.1,0.8,0c0.2,0,0.3,0.1,0.4,0.2c0.1,0.1,0.3,0.2,0.4,0.4
						c0.1,0.2,0.2,0.4,0.2,0.6l0.5,0c0-0.5-0.2-0.9-0.5-1.2C167.1,62,166.7,61.8,166.1,61.8z"/>
				</g>
				<g id="XMLID_2555_">
					<path id="XMLID_2561_" d="M175.2,68.5c0,0.1,0,0.1-0.1,0.1h-0.5c-0.1,0-0.1,0-0.1,0c0,0,0,0-0.1-0.1l-1.5-3h-1v3
						c0,0.1,0,0.1,0,0.1c0,0-0.1,0-0.1,0h-0.4c-0.1,0-0.1,0-0.1,0c0,0,0,0,0-0.1v-6.6c0-0.1,0-0.1,0-0.1c0,0,0.1,0,0.1,0h2.3
						c0.2,0,0.4,0,0.6,0.1c0.2,0.1,0.3,0.2,0.5,0.3c0.1,0.1,0.2,0.3,0.3,0.5c0.1,0.2,0.1,0.4,0.1,0.7v0.6c0,0.3,0,0.5-0.1,0.7
						c-0.1,0.2-0.2,0.4-0.3,0.5c-0.1,0.1-0.3,0.2-0.5,0.3c-0.2,0.1-0.4,0.1-0.5,0.1L175.2,68.5z M174.4,63.4c0-0.3-0.1-0.5-0.2-0.7
						c-0.2-0.1-0.4-0.2-0.7-0.2H172v2.3h1.6c0.3,0,0.5-0.1,0.7-0.2s0.2-0.4,0.2-0.7V63.4z"/>
					<path id="XMLID_2556_" d="M175.2,68.7h-0.5c-0.1,0-0.2,0-0.2,0c0,0-0.1-0.1-0.1-0.1l-1.5-3h-0.8v2.9c0,0.1,0,0.2-0.1,0.2
						c0,0-0.1,0-0.2,0h-0.4c-0.1,0-0.1,0-0.2,0c-0.1,0-0.1-0.1-0.1-0.2v-6.6c0-0.1,0-0.2,0.1-0.2c0,0,0.1,0,0.2,0h2.3
						c0.2,0,0.4,0,0.6,0.1c0.2,0.1,0.4,0.2,0.5,0.3c0.1,0.1,0.3,0.3,0.3,0.5c0.1,0.2,0.1,0.4,0.1,0.7v0.6c0,0.3,0,0.5-0.1,0.7
						c-0.1,0.2-0.2,0.4-0.3,0.5c-0.1,0.1-0.3,0.2-0.5,0.3c-0.1,0-0.3,0.1-0.4,0.1l1.5,2.9c0.1,0.1,0,0.2,0,0.2
						C175.3,68.7,175.3,68.7,175.2,68.7z M174.6,68.5C174.6,68.5,174.6,68.5,174.6,68.5l0.5,0l-1.6-3.1h0.2c0.2,0,0.3,0,0.5-0.1
						c0.2-0.1,0.3-0.1,0.4-0.2c0.1-0.1,0.2-0.3,0.3-0.4c0.1-0.2,0.1-0.4,0.1-0.6v-0.6c0-0.2,0-0.5-0.1-0.6c-0.1-0.2-0.2-0.3-0.3-0.4
						c-0.1-0.1-0.3-0.2-0.4-0.2c-0.2-0.1-0.3-0.1-0.5-0.1h-2.3l0,0v0v6.6v0l0,0h0.4l0,0v0v-3.1h1.2L174.6,68.5
						C174.6,68.4,174.6,68.5,174.6,68.5L174.6,68.5z M173.6,64.9h-1.7v-2.5h1.7c0.3,0,0.6,0.1,0.7,0.2c0.2,0.2,0.3,0.4,0.3,0.8v0.5
						c0,0.3-0.1,0.6-0.3,0.8C174.1,64.8,173.9,64.9,173.6,64.9z M172.1,64.6h1.5c0.2,0,0.4-0.1,0.6-0.2c0.1-0.1,0.2-0.3,0.2-0.6
						v-0.5c0-0.3-0.1-0.5-0.2-0.6c-0.1-0.1-0.3-0.2-0.6-0.2h-1.5V64.6z"/>
				</g>
				<g id="XMLID_2549_">
					<path id="XMLID_2553_" d="M181.8,68.4c0,0.1,0,0.1,0,0.1c0,0-0.1,0-0.1,0h-3.2c-0.1,0-0.1,0-0.1,0c0,0,0,0,0-0.1v-6.6
						c0-0.1,0-0.1,0-0.1c0,0,0.1,0,0.1,0h3.1c0.1,0,0.1,0,0.1,0c0,0,0,0,0,0.1v0.4c0,0.1,0,0.1,0,0.1c0,0-0.1,0-0.1,0H179v2.1h2.5
						c0.1,0,0.1,0,0.1,0c0,0,0,0,0,0.1v0.4c0,0.1,0,0.1,0,0.1c0,0-0.1,0-0.1,0H179v2.7h2.7c0.1,0,0.1,0,0.1,0c0,0,0,0,0,0.1V68.4z"
						/>
					<path id="XMLID_2550_" d="M181.7,68.7h-3.2c-0.1,0-0.1,0-0.2,0c-0.1,0-0.1-0.1-0.1-0.2v-6.6c0-0.1,0-0.2,0.1-0.2
						c0,0,0.1,0,0.2,0h3.1c0.1,0,0.1,0,0.2,0c0.1,0,0.1,0.1,0.1,0.2v0.4c0,0.1,0,0.2-0.1,0.2c0,0-0.1,0-0.2,0h-2.4v1.8h2.3
						c0.1,0,0.1,0,0.2,0c0.1,0,0.1,0.1,0.1,0.2v0.4c0,0.1,0,0.2-0.1,0.2c0,0-0.1,0-0.2,0h-2.3v2.4h2.6c0.1,0,0.1,0,0.2,0
						c0.1,0,0.1,0.1,0.1,0.2v0.4c0,0.1,0,0.2-0.1,0.2C181.8,68.7,181.8,68.7,181.7,68.7z M178.4,68.5L178.4,68.5l3.3,0l0,0v0V68v0
						l0,0h-2.8v-2.9h2.6c0,0,0,0,0,0v0v-0.4v0c0,0,0,0,0,0h-2.6v-2.3h2.6c0,0,0,0,0,0c0,0,0,0,0,0v-0.4v0c0,0,0,0,0,0h-3.1l0,0v0
						V68.5L178.4,68.5z"/>
				</g>
				<g id="XMLID_2541_">
					<path id="XMLID_2546_" d="M188.9,68.5C188.9,68.5,188.9,68.6,188.9,68.5C188.9,68.6,188.9,68.6,188.9,68.5l-0.6,0.1
						c0,0-0.1,0-0.1,0c0,0,0,0,0-0.1l-0.7-2.2h-2.1l-0.7,2.2c0,0.1,0,0.1,0,0.1c0,0-0.1,0-0.1,0h-0.5c0,0,0,0,0,0c0,0,0,0,0-0.1
						l1.9-6.7c0,0,0-0.1,0-0.1c0,0,0,0,0.1,0h0.8c0,0,0.1,0,0.1,0c0,0,0,0,0,0.1L188.9,68.5z M186.7,63.4c-0.1-0.2-0.1-0.5-0.2-0.6
						c0-0.2-0.1-0.3-0.1-0.5c0,0.2-0.1,0.3-0.1,0.5c0,0.2-0.1,0.4-0.2,0.6l-0.6,2.2h1.7L186.7,63.4z"/>
					<path id="XMLID_2542_" d="M188.9,68.7h-0.5c-0.1,0-0.1,0-0.1,0c-0.1,0-0.1-0.1-0.1-0.2l-0.6-2.2h-1.9l-0.6,2.2
						c0,0.1,0,0.1-0.1,0.2c0,0-0.1,0-0.1,0h-0.5c0,0-0.1,0-0.1,0c-0.1-0.1,0-0.2,0-0.2l1.9-6.7c0-0.1,0-0.1,0.1-0.1c0,0,0.1,0,0.1,0
						h0.4l0-0.2l0,0.2h0.3c0,0,0.1,0,0.1,0c0,0,0,0,0.1,0.1l1.9,6.7c0,0,0,0.1,0,0.2C188.9,68.7,188.9,68.7,188.9,68.7z M188.3,68.5
						C188.3,68.5,188.3,68.5,188.3,68.5l0.5,0l-1.9-6.6l-0.3,0l0,0.4c0,0.2,0,0.3,0.1,0.5c0,0.2,0.1,0.4,0.2,0.6l0,0l0.6,2.3h-2
						l0.7-2.3c0.1-0.2,0.1-0.4,0.2-0.6c0-0.2,0.1-0.3,0.1-0.5l0.1-0.4l-0.3,0l-1.9,6.6l0.4,0c0,0,0,0,0,0l0,0l0.7-2.3h2.3
						L188.3,68.5L188.3,68.5z M185.8,65.4h1.4l-0.6-2c-0.1-0.2-0.1-0.4-0.1-0.5c0,0.2-0.1,0.3-0.1,0.5L185.8,65.4z"/>
				</g>
				<g id="XMLID_2535_">
					<path id="XMLID_2539_" d="M194.9,62.3c0,0.1,0,0.1,0,0.1c0,0-0.1,0-0.1,0h-1.5v6c0,0.1,0,0.1,0,0.1c0,0-0.1,0-0.1,0h-0.4
						c-0.1,0-0.1,0-0.1,0c0,0,0,0,0-0.1v-6h-1.5c-0.1,0-0.1,0-0.1,0c0,0,0,0,0-0.1v-0.4c0-0.1,0-0.1,0-0.1c0,0,0.1,0,0.1,0h3.7
						c0.1,0,0.1,0,0.1,0c0,0,0,0,0,0.1V62.3z"/>
					<path id="XMLID_2536_" d="M193.2,68.7h-0.4c-0.1,0-0.1,0-0.2,0c-0.1,0-0.1-0.1-0.1-0.2v-5.9h-1.4c-0.1,0-0.1,0-0.2,0
						c-0.1,0-0.1-0.1-0.1-0.2v-0.4c0-0.1,0-0.2,0.1-0.2c0,0,0.1,0,0.2,0h3.7c0.1,0,0.1,0,0.2,0c0.1,0,0.1,0.1,0.1,0.2v0.4
						c0,0.1,0,0.2-0.1,0.2c0,0-0.1,0-0.2,0h-1.4v5.9c0,0.1,0,0.2-0.1,0.2C193.3,68.7,193.3,68.7,193.2,68.7z M192.7,68.5L192.7,68.5
						l0.4,0h0l0,0v-6.1h1.6l0,0v0v-0.4v0l0,0h-3.7l0,0v0v0.4v0l0,0h1.6V68.5L192.7,68.5z"/>
				</g>
				<g id="XMLID_2529_">
					<path id="XMLID_2533_" d="M200.2,68.4c0,0.1,0,0.1,0,0.1c0,0-0.1,0-0.1,0h-2.5c-0.1,0-0.1,0-0.1,0c0,0,0,0,0-0.1V68
						c0-0.1,0-0.1,0-0.1c0,0,0.1,0,0.1,0h0.9v-5.4h-0.9c-0.1,0-0.1,0-0.1,0c0,0,0,0,0-0.1v-0.4c0-0.1,0-0.1,0-0.1c0,0,0.1,0,0.1,0
						h2.5c0.1,0,0.1,0,0.1,0c0,0,0,0,0,0.1v0.4c0,0.1,0,0.1,0,0.1c0,0-0.1,0-0.1,0h-0.9v5.4h0.9c0.1,0,0.1,0,0.1,0c0,0,0,0,0,0.1
						V68.4z"/>
					<path id="XMLID_2530_" d="M200,68.7h-2.5c-0.1,0-0.1,0-0.2,0c-0.1,0-0.1-0.1-0.1-0.2V68c0-0.1,0-0.2,0.1-0.2c0,0,0.1,0,0.2,0
						h0.8v-5.2h-0.8c-0.1,0-0.1,0-0.2,0c-0.1,0-0.1-0.1-0.1-0.2v-0.4c0-0.1,0-0.2,0.1-0.2c0,0,0.1,0,0.2,0h2.5c0.1,0,0.1,0,0.2,0
						c0.1,0,0.1,0.1,0.1,0.2v0.4c0,0.1,0,0.2-0.1,0.2c0,0-0.1,0-0.2,0h-0.8v5.2h0.8c0.1,0,0.1,0,0.2,0c0.1,0,0.1,0.1,0.1,0.2v0.4
						c0,0.1,0,0.2-0.1,0.2C200.2,68.7,200.1,68.7,200,68.7z M197.5,68.5L197.5,68.5l2.5,0c0,0,0,0,0,0v0V68v0c0,0,0,0,0,0h-1v-5.7h1
						c0,0,0,0,0,0v0v-0.4v0c0,0,0,0,0,0h-2.5l0,0v0v0.4v0l0,0h1V68h-1l0,0v0V68.5L197.5,68.5z"/>
				</g>
				<g id="XMLID_2522_">
					<path id="XMLID_2527_" d="M205.8,68.5C205.7,68.5,205.7,68.6,205.8,68.5c-0.1,0.1-0.1,0.1-0.1,0.1h-0.7c0,0-0.1,0-0.1,0
						c0,0,0,0,0-0.1l-1.9-6.6c0-0.1,0-0.1,0.1-0.1h0.5c0.1,0,0.1,0,0.1,0c0,0,0,0,0,0.1l1.4,4.9c0.1,0.2,0.1,0.4,0.2,0.6
						c0,0.2,0.1,0.5,0.1,0.8c0-0.3,0.1-0.6,0.1-0.8c0-0.2,0.1-0.4,0.2-0.6l1.4-4.9c0,0,0-0.1,0-0.1c0,0,0.1,0,0.1,0h0.5
						c0.1,0,0.1,0,0.1,0.1L205.8,68.5z"/>
					<path id="XMLID_2523_" d="M205.3,69.1l-0.1-0.4h-0.3c-0.1,0-0.1,0-0.1,0c-0.1,0-0.1-0.1-0.1-0.1l-1.9-6.6c0-0.1,0-0.2,0-0.2
						c0,0,0.1-0.1,0.2-0.1h0.5c0.1,0,0.1,0,0.2,0.1c0,0,0,0.1,0.1,0.1l1.4,4.9c0.1,0.2,0.1,0.4,0.2,0.6c0,0,0,0.1,0,0.1
						c0,0,0-0.1,0-0.1c0-0.2,0.1-0.4,0.2-0.6l1.4-4.9c0-0.1,0-0.1,0.1-0.1c0,0,0.1-0.1,0.2-0.1h0.5c0.1,0,0.2,0,0.2,0.1
						c0,0,0,0.1,0,0.2l-1.9,6.6c0,0,0,0.1-0.1,0.1c0,0-0.1,0-0.1,0h-0.3L205.3,69.1z M205.4,68.5l0.3,0l1.9-6.6l-0.4,0c0,0,0,0,0,0
						c0,0,0,0,0,0l-1.4,4.9c-0.1,0.2-0.1,0.4-0.2,0.6c0,0.2-0.1,0.5-0.1,0.8L205.4,68.5z M204.9,68.5h0.3l0-0.3
						c0-0.3-0.1-0.6-0.1-0.8c0-0.2-0.1-0.4-0.2-0.6l-1.4-4.9c0,0,0,0,0,0c0,0,0,0,0,0H203L204.9,68.5z"/>
				</g>
				<g id="XMLID_2516_">
					<path id="XMLID_2520_" d="M213.1,68.4c0,0.1,0,0.1,0,0.1c0,0-0.1,0-0.1,0h-2.5c-0.1,0-0.1,0-0.1,0c0,0,0,0,0-0.1V68
						c0-0.1,0-0.1,0-0.1c0,0,0.1,0,0.1,0h0.9v-5.4h-0.9c-0.1,0-0.1,0-0.1,0c0,0,0,0,0-0.1v-0.4c0-0.1,0-0.1,0-0.1c0,0,0.1,0,0.1,0
						h2.5c0.1,0,0.1,0,0.1,0c0,0,0,0,0,0.1v0.4c0,0.1,0,0.1,0,0.1c0,0-0.1,0-0.1,0H212v5.4h0.9c0.1,0,0.1,0,0.1,0c0,0,0,0,0,0.1
						V68.4z"/>
					<path id="XMLID_2517_" d="M212.9,68.7h-2.5c-0.1,0-0.1,0-0.2,0c-0.1,0-0.1-0.1-0.1-0.2V68c0-0.1,0-0.2,0.1-0.2c0,0,0.1,0,0.2,0
						h0.8v-5.2h-0.8c-0.1,0-0.1,0-0.2,0c-0.1,0-0.1-0.1-0.1-0.2v-0.4c0-0.1,0-0.2,0.1-0.2c0,0,0.1,0,0.2,0h2.5c0.1,0,0.1,0,0.2,0
						c0.1,0,0.1,0.1,0.1,0.2v0.4c0,0.1,0,0.2-0.1,0.2c0,0-0.1,0-0.2,0h-0.8v5.2h0.8c0.1,0,0.1,0,0.2,0c0.1,0,0.1,0.1,0.1,0.2v0.4
						c0,0.1,0,0.2-0.1,0.2C213.1,68.7,213,68.7,212.9,68.7z M210.4,68.5L210.4,68.5l2.5,0c0,0,0,0,0,0v0V68v0c0,0,0,0,0,0h-1v-5.7h1
						c0,0,0,0,0,0v0v-0.4v0c0,0,0,0,0,0h-2.5h0l0,0v0.4v0l0,0h1V68h-1h0c0,0,0,0,0,0V68.5L210.4,68.5z"/>
				</g>
				<g id="XMLID_2507_">
					<path id="XMLID_2513_" d="M220.1,66.7c0,0.6-0.2,1-0.5,1.4c-0.4,0.3-0.8,0.5-1.4,0.5h-1.7c-0.1,0-0.1,0-0.1,0c0,0,0,0,0-0.1
						v-6.6c0-0.1,0-0.1,0-0.1c0,0,0.1,0,0.1,0h1.7c0.6,0,1.1,0.2,1.4,0.5c0.4,0.3,0.5,0.8,0.5,1.4V66.7z M219.4,63.7
						c0-0.3,0-0.5-0.1-0.7c-0.1-0.2-0.2-0.3-0.3-0.4c-0.1-0.1-0.3-0.2-0.4-0.2c-0.1,0-0.3,0-0.4,0H217v5.4h1.1c0.1,0,0.2,0,0.4,0
						c0.1,0,0.3-0.1,0.4-0.2c0.1-0.1,0.2-0.2,0.3-0.4c0.1-0.2,0.1-0.4,0.1-0.7V63.7z"/>
					<path id="XMLID_2508_" d="M218.1,68.7h-1.7c-0.1,0-0.1,0-0.2,0c-0.1,0-0.1-0.1-0.1-0.2v-6.6c0-0.1,0-0.2,0.1-0.2
						c0,0,0.1,0,0.2,0h1.7c0.6,0,1.1,0.2,1.5,0.5c0.4,0.3,0.6,0.8,0.6,1.5v3.1c0,0.6-0.2,1.1-0.6,1.5
						C219.3,68.5,218.7,68.7,218.1,68.7z M216.4,68.5L216.4,68.5l1.7,0c0.6,0,1-0.2,1.3-0.5c0.3-0.3,0.5-0.7,0.5-1.3v-3.1
						c0-0.6-0.2-1-0.5-1.3c-0.3-0.3-0.8-0.5-1.3-0.5h-1.7h0l0,0V68.5L216.4,68.5z M218.1,68h-1.2v-5.7h1.2c0.1,0,0.3,0,0.4,0
						c0.2,0,0.3,0.1,0.5,0.2c0.1,0.1,0.3,0.2,0.4,0.4c0.1,0.2,0.1,0.4,0.1,0.7v2.9c0,0.3,0,0.5-0.1,0.7c-0.1,0.2-0.2,0.3-0.4,0.4
						c-0.1,0.1-0.3,0.2-0.5,0.2C218.4,68,218.2,68,218.1,68z M217.1,67.8h1c0.1,0,0.2,0,0.4,0c0.1,0,0.3-0.1,0.4-0.2
						c0.1-0.1,0.2-0.2,0.3-0.3c0.1-0.1,0.1-0.3,0.1-0.6v-2.9c0-0.3,0-0.5-0.1-0.6c-0.1-0.1-0.2-0.3-0.3-0.3
						c-0.1-0.1-0.2-0.1-0.4-0.2c-0.1,0-0.3,0-0.4,0h-1V67.8z"/>
				</g>
				<g id="XMLID_2499_">
					<path id="XMLID_2504_" d="M227.8,68.5C227.8,68.5,227.8,68.6,227.8,68.5C227.8,68.6,227.7,68.6,227.8,68.5l-0.6,0.1
						c0,0-0.1,0-0.1,0c0,0,0,0,0-0.1l-0.7-2.2h-2.1l-0.7,2.2c0,0.1,0,0.1,0,0.1c0,0-0.1,0-0.1,0H223c0,0,0,0,0,0c0,0,0,0,0-0.1
						l1.9-6.7c0,0,0-0.1,0-0.1c0,0,0,0,0.1,0h0.8c0,0,0.1,0,0.1,0c0,0,0,0,0,0.1L227.8,68.5z M225.6,63.4c-0.1-0.2-0.1-0.5-0.2-0.6
						c0-0.2-0.1-0.3-0.1-0.5c0,0.2-0.1,0.3-0.1,0.5c0,0.2-0.1,0.4-0.2,0.6l-0.6,2.2h1.7L225.6,63.4z"/>
					<path id="XMLID_2500_" d="M227.7,68.7h-0.5c-0.1,0-0.1,0-0.1,0c-0.1,0-0.1-0.1-0.1-0.2l-0.6-2.2h-1.9l-0.6,2.2
						c0,0.1,0,0.1-0.1,0.2c0,0-0.1,0-0.1,0H223c0,0-0.1,0-0.1,0c-0.1-0.1,0-0.2,0-0.2l1.9-6.7c0-0.1,0-0.1,0.1-0.1c0,0,0.1,0,0.1,0
						h0.4l0-0.2l0,0.2h0.3c0,0,0.1,0,0.1,0c0,0,0,0,0.1,0.1l1.9,6.7c0,0,0,0.1,0,0.2C227.8,68.7,227.8,68.7,227.7,68.7z M227.2,68.5
						C227.2,68.5,227.2,68.5,227.2,68.5l0.5,0l-1.9-6.6l-0.3,0l0,0.4c0,0.2,0,0.3,0.1,0.5c0,0.2,0.1,0.4,0.2,0.6l0,0l0.6,2.3h-2
						l0.7-2.3c0.1-0.2,0.1-0.4,0.2-0.6c0-0.2,0.1-0.3,0.1-0.5l0.1-0.4l-0.3,0l-1.9,6.6l0.4,0c0,0,0,0,0,0l0,0l0.7-2.3h2.3
						L227.2,68.5L227.2,68.5z M224.6,65.4h1.4l-0.6-2c-0.1-0.2-0.1-0.4-0.1-0.5c0,0.2-0.1,0.3-0.1,0.5L224.6,65.4z"/>
				</g>
				<g id="XMLID_2490_">
					<path id="XMLID_2496_" d="M234.4,66.7c0,0.6-0.2,1-0.5,1.4c-0.4,0.3-0.8,0.5-1.4,0.5h-1.7c-0.1,0-0.1,0-0.1,0c0,0,0,0,0-0.1
						v-6.6c0-0.1,0-0.1,0-0.1c0,0,0.1,0,0.1,0h1.7c0.6,0,1.1,0.2,1.4,0.5c0.4,0.3,0.5,0.8,0.5,1.4V66.7z M233.7,63.7
						c0-0.3,0-0.5-0.1-0.7c-0.1-0.2-0.2-0.3-0.3-0.4c-0.1-0.1-0.3-0.2-0.4-0.2c-0.1,0-0.3,0-0.4,0h-1.1v5.4h1.1c0.1,0,0.2,0,0.4,0
						c0.1,0,0.3-0.1,0.4-0.2c0.1-0.1,0.2-0.2,0.3-0.4c0.1-0.2,0.1-0.4,0.1-0.7V63.7z"/>
					<path id="XMLID_2491_" d="M232.5,68.7h-1.7c-0.1,0-0.1,0-0.2,0c-0.1,0-0.1-0.1-0.1-0.2v-6.6c0-0.1,0-0.2,0.1-0.2
						c0,0,0.1,0,0.2,0h1.7c0.6,0,1.1,0.2,1.5,0.5c0.4,0.3,0.6,0.8,0.6,1.5v3.1c0,0.6-0.2,1.1-0.6,1.5
						C233.6,68.5,233.1,68.7,232.5,68.7z M230.8,68.5L230.8,68.5l1.7,0c0.6,0,1-0.2,1.3-0.5c0.3-0.3,0.5-0.7,0.5-1.3v-3.1
						c0-0.6-0.2-1-0.5-1.3c-0.3-0.3-0.8-0.5-1.3-0.5h-1.7h0l0,0V68.5L230.8,68.5z M232.5,68h-1.2v-5.7h1.2c0.1,0,0.3,0,0.4,0
						c0.2,0,0.3,0.1,0.5,0.2c0.1,0.1,0.3,0.2,0.4,0.4c0.1,0.2,0.1,0.4,0.1,0.7v2.9c0,0.3,0,0.5-0.1,0.7c-0.1,0.2-0.2,0.3-0.4,0.4
						c-0.1,0.1-0.3,0.2-0.5,0.2C232.7,68,232.6,68,232.5,68z M231.5,67.8h1c0.1,0,0.2,0,0.4,0c0.1,0,0.3-0.1,0.4-0.2
						c0.1-0.1,0.2-0.2,0.3-0.3c0.1-0.1,0.1-0.3,0.1-0.6v-2.9c0-0.3,0-0.5-0.1-0.6c-0.1-0.1-0.2-0.3-0.3-0.3
						c-0.1-0.1-0.2-0.1-0.4-0.2c-0.1,0-0.3,0-0.4,0h-1V67.8z"/>
				</g>
			</g>
		</g>
	</g>
	<rect id="XMLID_197_" x="85.9" y="5.8" width="0.6" height="72.3"/>
	<g id="XMLID_3_">
		<g id="XMLID_53_">
			<g id="XMLID_441_">
				<g id="XMLID_491_">
					<path id="XMLID_497_" d="M42.3,52c0,0.2,0,0.3-0.1,0.5c-0.1,0.1-0.1,0.2-0.2,0.3c-0.1,0.1-0.2,0.1-0.3,0.2
						c-0.1,0-0.2,0.1-0.4,0.1h-1.1v2c0,0,0,0.1,0,0.1c0,0,0,0-0.1,0h-0.3c0,0-0.1,0-0.1,0c0,0,0,0,0-0.1v-4.4c0,0,0-0.1,0-0.1
						c0,0,0,0,0.1,0h1.5c0.1,0,0.3,0,0.4,0.1c0.1,0,0.2,0.1,0.3,0.2c0.1,0.1,0.2,0.2,0.2,0.3c0.1,0.1,0.1,0.3,0.1,0.5V52z
						 M41.8,51.6c0-0.2-0.1-0.4-0.2-0.5c-0.1-0.1-0.3-0.1-0.4-0.1h-1.1v1.5h1.1c0.2,0,0.3,0,0.4-0.1c0.1-0.1,0.2-0.3,0.2-0.5V51.6z"
						/>
					<path id="XMLID_492_" d="M40.1,55.3h-0.3c-0.1,0-0.1,0-0.2,0c-0.1-0.1-0.1-0.1-0.1-0.2v-4.4c0,0,0-0.1,0.1-0.2
						c0.1,0,0.1,0,0.2,0h1.5c0.1,0,0.3,0,0.4,0.1c0.1,0,0.3,0.1,0.4,0.2c0.1,0.1,0.2,0.2,0.2,0.4c0.1,0.1,0.1,0.3,0.1,0.5V52
						c0,0.2,0,0.4-0.1,0.5c-0.1,0.1-0.1,0.3-0.3,0.4c-0.1,0.1-0.2,0.2-0.4,0.2c-0.1,0-0.3,0.1-0.4,0.1h-1v1.9c0,0,0,0.1-0.1,0.2
						C40.2,55.3,40.1,55.3,40.1,55.3z M39.8,55l0.2,0l0-2c0-0.1,0.1-0.1,0.1-0.1h1.1c0.1,0,0.2,0,0.3-0.1c0.1,0,0.2-0.1,0.3-0.2
						c0.1-0.1,0.1-0.2,0.2-0.3c0-0.1,0.1-0.2,0.1-0.4v-0.4c0-0.2,0-0.3-0.1-0.4c0-0.1-0.1-0.2-0.2-0.3c-0.1-0.1-0.2-0.1-0.3-0.2
						c-0.1,0-0.2-0.1-0.3-0.1h-1.5L39.8,55z M41.2,52.7h-1.1c-0.1,0-0.1-0.1-0.1-0.1V51c0-0.1,0.1-0.1,0.1-0.1h1.1
						c0.2,0,0.4,0.1,0.5,0.2c0.1,0.1,0.2,0.3,0.2,0.6v0.3c0,0.3-0.1,0.4-0.2,0.6C41.6,52.6,41.5,52.7,41.2,52.7z M40.3,52.4h0.9
						c0.2,0,0.3,0,0.3-0.1c0.1-0.1,0.1-0.2,0.1-0.4v-0.3c0-0.2,0-0.3-0.1-0.4c-0.1-0.1-0.2-0.1-0.3-0.1h-0.9V52.4z"/>
				</g>
				<g id="XMLID_482_">
					<path id="XMLID_488_" d="M47,55.1C47,55.1,47,55.2,47,55.1l-0.4,0.1c0,0-0.1,0-0.1,0c0,0,0,0,0-0.1l-1-2.1h-0.7v2
						c0,0,0,0.1,0,0.1c0,0,0,0-0.1,0h-0.3c0,0-0.1,0-0.1,0c0,0,0,0,0-0.1v-4.4c0,0,0-0.1,0-0.1c0,0,0,0,0.1,0H46
						c0.1,0,0.3,0,0.4,0.1c0.1,0,0.2,0.1,0.3,0.2s0.2,0.2,0.2,0.3c0.1,0.1,0.1,0.3,0.1,0.5V52c0,0.2,0,0.3-0.1,0.5
						c-0.1,0.1-0.1,0.2-0.2,0.3c-0.1,0.1-0.2,0.1-0.3,0.2C46.2,53,46.1,53,46,53L47,55.1z M46.5,51.6c0-0.2-0.1-0.4-0.2-0.5
						c-0.1-0.1-0.3-0.1-0.4-0.1h-1.1v1.5h1.1c0.2,0,0.3,0,0.4-0.1c0.1-0.1,0.2-0.3,0.2-0.5V51.6z"/>
					<path id="XMLID_483_" d="M47,55.3h-0.3c-0.1,0-0.1,0-0.2,0c0,0,0-0.1-0.1-0.1l-1-2h-0.4v1.9c0,0,0,0.1-0.1,0.2c0,0-0.1,0-0.2,0
						h-0.3c-0.1,0-0.1,0-0.2,0c-0.1-0.1-0.1-0.1-0.1-0.2v-4.4c0,0,0-0.1,0.1-0.2c0.1,0,0.1,0,0.2,0H46c0.1,0,0.3,0,0.4,0.1
						c0.1,0,0.3,0.1,0.4,0.2c0.1,0.1,0.2,0.2,0.2,0.4c0.1,0.1,0.1,0.3,0.1,0.5V52c0,0.2,0,0.4-0.1,0.5c-0.1,0.2-0.1,0.3-0.2,0.4
						c-0.1,0.1-0.2,0.2-0.4,0.2c-0.1,0-0.1,0-0.2,0l0.9,1.9c0.1,0.1,0,0.2,0,0.2C47.1,55.3,47.1,55.3,47,55.3z M44.5,55l0.2,0l0-2
						c0-0.1,0.1-0.1,0.1-0.1h0.7c0.1,0,0.1,0,0.1,0.1l1,2l0.2,0l-1-1.9c0,0,0-0.1,0-0.1c0,0,0.1-0.1,0.1-0.1c0.1,0,0.2,0,0.3-0.1
						c0.1,0,0.2-0.1,0.3-0.2c0.1-0.1,0.1-0.2,0.2-0.3c0-0.1,0.1-0.3,0.1-0.4v-0.4c0-0.2,0-0.3-0.1-0.4c0-0.1-0.1-0.2-0.2-0.3
						c-0.1-0.1-0.2-0.1-0.3-0.2c-0.1,0-0.2-0.1-0.3-0.1h-1.5L44.5,55z M45.9,52.7h-1.1c-0.1,0-0.1-0.1-0.1-0.1V51
						c0-0.1,0.1-0.1,0.1-0.1h1.1c0.2,0,0.4,0.1,0.5,0.2c0.1,0.1,0.2,0.3,0.2,0.6v0.3c0,0.3-0.1,0.4-0.2,0.6
						C46.3,52.6,46.1,52.7,45.9,52.7z M44.9,52.4h0.9c0.2,0,0.3,0,0.3-0.1c0.1-0.1,0.1-0.2,0.1-0.4v-0.3c0-0.2,0-0.3-0.1-0.4
						c-0.1-0.1-0.2-0.1-0.3-0.1h-0.9V52.4z"/>
				</g>
				<g id="XMLID_476_">
					<path id="XMLID_480_" d="M51.5,55.1C51.5,55.1,51.5,55.1,51.5,55.1C51.4,55.2,51.4,55.2,51.5,55.1l-2.3,0.1c0,0-0.1,0-0.1,0
						c0,0,0,0,0-0.1v-4.4c0,0,0-0.1,0-0.1c0,0,0,0,0.1,0h2.1c0,0,0.1,0,0.1,0c0,0,0,0,0,0.1v0.3c0,0,0,0.1,0,0.1c0,0,0,0-0.1,0h-1.7
						v1.4h1.7c0,0,0.1,0,0.1,0c0,0,0,0,0,0.1v0.3c0,0,0,0.1,0,0.1c0,0,0,0-0.1,0h-1.7v1.8h1.8c0,0,0.1,0,0.1,0c0,0,0,0,0,0.1V55.1z"
						/>
					<path id="XMLID_477_" d="M51.4,55.3h-2.2c-0.1,0-0.1,0-0.2,0c-0.1-0.1-0.1-0.1-0.1-0.2v-4.4c0,0,0-0.1,0.1-0.2
						c0.1,0,0.1,0,0.2,0h2.1c0,0,0.1,0,0.2,0c0.1,0.1,0.1,0.2,0.1,0.2v0.3c0,0,0,0.1-0.1,0.2c0,0-0.1,0-0.2,0h-1.5v1.1h1.5
						c0,0,0.1,0,0.2,0c0.1,0.1,0.1,0.2,0.1,0.2v0.3c0,0,0,0.1-0.1,0.2c-0.1,0-0.1,0-0.2,0h-1.5v1.5h1.7c0,0,0.1,0,0.2,0
						c0.1,0.1,0.1,0.2,0.1,0.2v0.3c0,0.1,0,0.1-0.1,0.2C51.5,55.3,51.4,55.3,51.4,55.3z M49.2,55l2.1,0v-0.2l-1.8,0
						c-0.1,0-0.1-0.1-0.1-0.1v-1.8c0-0.1,0.1-0.1,0.1-0.1h1.6l0-0.2l-1.6,0c-0.1,0-0.1-0.1-0.1-0.1V51c0-0.1,0.1-0.1,0.1-0.1h1.6
						l0-0.2l-2,0L49.2,55z"/>
				</g>
				<g id="XMLID_470_">
					<path id="XMLID_474_" d="M56,53.8c0,0.5-0.1,0.8-0.3,1c-0.2,0.2-0.6,0.3-1,0.3c-0.2,0-0.5-0.1-0.7-0.2
						c-0.2-0.1-0.5-0.3-0.6-0.5c0,0,0,0,0,0c0,0,0,0,0,0l0.3-0.2c0,0,0.1,0,0.1,0c0.1,0.2,0.3,0.3,0.4,0.4c0.2,0.1,0.3,0.1,0.5,0.1
						c0.1,0,0.2,0,0.3,0c0.1,0,0.2-0.1,0.3-0.1c0.1-0.1,0.2-0.2,0.2-0.3c0.1-0.1,0.1-0.3,0.1-0.5c0-0.2-0.1-0.4-0.2-0.5
						c-0.1-0.1-0.4-0.3-0.7-0.4c-0.1,0-0.2-0.1-0.3-0.1c-0.1,0-0.1-0.1-0.2-0.1c-0.1,0-0.1-0.1-0.2-0.1c-0.1,0-0.1-0.1-0.2-0.1
						c-0.1-0.1-0.2-0.2-0.3-0.3c-0.1-0.1-0.1-0.3-0.1-0.5c0-0.2,0-0.3,0.1-0.5c0.1-0.1,0.2-0.3,0.3-0.4c0.1-0.1,0.2-0.2,0.4-0.2
						c0.2-0.1,0.3-0.1,0.5-0.1c0.3,0,0.5,0,0.7,0.1c0.2,0.1,0.3,0.2,0.5,0.4c0,0,0,0.1,0,0.1l-0.3,0.2c0,0,0,0-0.1,0c0,0,0,0,0,0
						c-0.1-0.1-0.2-0.2-0.4-0.3C55,51,54.8,51,54.6,51c-0.3,0-0.4,0.1-0.6,0.2c-0.1,0.1-0.2,0.3-0.2,0.5c0,0.1,0,0.2,0,0.3
						c0,0.1,0.1,0.1,0.1,0.2s0.2,0.1,0.3,0.2c0.1,0.1,0.3,0.1,0.5,0.2c0.2,0.1,0.3,0.1,0.5,0.2c0.1,0.1,0.3,0.2,0.4,0.3
						c0.1,0.1,0.2,0.2,0.2,0.4C55.9,53.5,56,53.7,56,53.8z"/>
					<path id="XMLID_471_" d="M54.6,55.4c-0.2,0-0.5-0.1-0.8-0.2c-0.3-0.1-0.5-0.3-0.7-0.6c0-0.1-0.1-0.1-0.1-0.1
						c0-0.1,0.1-0.1,0.1-0.2l0.3-0.2c0.1-0.1,0.2-0.1,0.3,0c0.1,0.1,0.2,0.3,0.4,0.3c0.1,0.1,0.3,0.1,0.4,0.1c0.1,0,0.2,0,0.3,0
						c0.1,0,0.2,0,0.2-0.1c0.1,0,0.1-0.1,0.2-0.2c0-0.1,0.1-0.2,0.1-0.4c0-0.2-0.1-0.3-0.2-0.4c-0.1-0.1-0.3-0.2-0.6-0.3
						c-0.1,0-0.2-0.1-0.3-0.1c-0.1,0-0.2-0.1-0.2-0.1c-0.1,0-0.1-0.1-0.2-0.1c-0.1,0-0.1-0.1-0.2-0.1c-0.1-0.1-0.2-0.2-0.3-0.4
						c-0.1-0.2-0.1-0.4-0.1-0.6c0-0.2,0-0.4,0.1-0.5c0.1-0.2,0.2-0.3,0.3-0.4c0.1-0.1,0.3-0.2,0.4-0.3c0.2-0.1,0.4-0.1,0.5-0.1
						c0.3,0,0.6,0.1,0.8,0.2c0.2,0.1,0.4,0.3,0.5,0.4c0,0.1,0.1,0.1,0.1,0.1c0,0,0,0.1-0.1,0.1l-0.3,0.2c-0.1,0.1-0.1,0.1-0.2,0.1
						c0,0-0.1,0-0.1-0.1c-0.1-0.1-0.2-0.2-0.3-0.3c-0.1,0-0.2-0.1-0.4-0.1c-0.2,0-0.4,0.1-0.5,0.2C54,51.4,54,51.5,54,51.6
						c0,0.1,0,0.2,0,0.2c0,0.1,0,0.1,0.1,0.2c0.1,0.1,0.1,0.1,0.2,0.2c0.1,0.1,0.3,0.1,0.5,0.2c0.2,0.1,0.4,0.1,0.5,0.2
						c0.2,0.1,0.3,0.2,0.4,0.3c0.1,0.1,0.2,0.3,0.3,0.4c0.1,0.2,0.1,0.3,0.1,0.5c0,0.5-0.1,0.9-0.4,1.1
						C55.5,55.2,55.1,55.4,54.6,55.4z M53.5,54.5c0.2,0.2,0.3,0.3,0.5,0.4c0.2,0.1,0.4,0.1,0.6,0.1c0.4,0,0.7-0.1,0.9-0.3
						c0.2-0.2,0.3-0.5,0.3-0.9c0-0.2,0-0.3-0.1-0.4c0-0.1-0.1-0.2-0.2-0.3c-0.1-0.1-0.2-0.2-0.3-0.2c-0.1-0.1-0.3-0.1-0.5-0.2
						c-0.2-0.1-0.4-0.1-0.5-0.2c-0.1-0.1-0.2-0.1-0.3-0.2c-0.1-0.1-0.1-0.2-0.2-0.3c0-0.1,0-0.2,0-0.3c0-0.2,0.1-0.4,0.2-0.6
						c0.2-0.2,0.4-0.2,0.7-0.2c0.2,0,0.4,0,0.5,0.1c0.1,0.1,0.2,0.1,0.4,0.3l0.1-0.1c-0.1-0.1-0.3-0.2-0.4-0.3
						c-0.2-0.1-0.4-0.1-0.6-0.1c-0.2,0-0.3,0-0.4,0.1c-0.1,0-0.3,0.1-0.3,0.2c-0.1,0.1-0.2,0.2-0.2,0.3c-0.1,0.1-0.1,0.3-0.1,0.4
						c0,0.2,0,0.4,0.1,0.5c0.1,0.1,0.1,0.2,0.2,0.3c0.1,0,0.1,0.1,0.2,0.1c0.1,0,0.1,0.1,0.2,0.1c0.1,0,0.1,0.1,0.2,0.1
						c0.1,0,0.2,0.1,0.3,0.1c0.4,0.1,0.6,0.2,0.8,0.4c0.2,0.2,0.2,0.4,0.2,0.6c0,0.2,0,0.4-0.1,0.6c-0.1,0.1-0.2,0.3-0.3,0.3
						c-0.1,0.1-0.2,0.1-0.3,0.1c-0.1,0-0.2,0-0.3,0c-0.2,0-0.4,0-0.5-0.1c-0.2-0.1-0.3-0.2-0.4-0.4L53.5,54.5z"/>
				</g>
				<g id="XMLID_464_">
					<path id="XMLID_468_" d="M60.6,55.1C60.6,55.1,60.6,55.1,60.6,55.1C60.6,55.2,60.5,55.2,60.6,55.1l-2.3,0.1c0,0-0.1,0-0.1,0
						c0,0,0,0,0-0.1v-4.4c0,0,0-0.1,0-0.1c0,0,0,0,0.1,0h2.1c0,0,0.1,0,0.1,0c0,0,0,0,0,0.1v0.3c0,0,0,0.1,0,0.1c0,0,0,0-0.1,0h-1.7
						v1.4h1.7c0,0,0.1,0,0.1,0c0,0,0,0,0,0.1v0.3c0,0,0,0.1,0,0.1c0,0,0,0-0.1,0h-1.7v1.8h1.8c0,0,0.1,0,0.1,0c0,0,0,0,0,0.1V55.1z"
						/>
					<path id="XMLID_465_" d="M60.5,55.3h-2.2c-0.1,0-0.1,0-0.2,0c-0.1-0.1-0.1-0.1-0.1-0.2v-4.4c0,0,0-0.1,0.1-0.2
						c0.1,0,0.1,0,0.2,0h2.1c0,0,0.1,0,0.2,0c0.1,0.1,0.1,0.2,0.1,0.2v0.3c0,0,0,0.1-0.1,0.2c0,0-0.1,0-0.2,0h-1.5v1.1h1.5
						c0,0,0.1,0,0.2,0c0.1,0.1,0.1,0.2,0.1,0.2v0.3c0,0,0,0.1-0.1,0.2c-0.1,0-0.1,0-0.2,0h-1.5v1.5h1.7c0,0,0.1,0,0.2,0
						c0.1,0.1,0.1,0.2,0.1,0.2v0.3c0,0.1,0,0.1-0.1,0.2C60.6,55.3,60.6,55.3,60.5,55.3z M58.4,55l2.1,0v-0.2l-1.8,0
						c-0.1,0-0.1-0.1-0.1-0.1v-1.8c0-0.1,0.1-0.1,0.1-0.1h1.6l0-0.2l-1.6,0c-0.1,0-0.1-0.1-0.1-0.1V51c0-0.1,0.1-0.1,0.1-0.1h1.6
						l0-0.2l-2,0L58.4,55z"/>
				</g>
				<g id="XMLID_457_">
					<path id="XMLID_462_" d="M65.4,55.1C65.4,55.1,65.4,55.1,65.4,55.1C65.4,55.2,65.4,55.2,65.4,55.1l-0.7,0c0,0-0.1,0-0.1,0
						l-1.5-3.6c0-0.1,0-0.1-0.1-0.2c0-0.1-0.1-0.1-0.1-0.2c0-0.1,0-0.1-0.1-0.2c0-0.1,0-0.1,0-0.1c0,0.1,0,0.2,0,0.3
						c0,0.2,0,0.3,0,0.5v3.5c0,0,0,0.1,0,0.1c0,0,0,0-0.1,0h-0.3c0,0-0.1,0-0.1,0c0,0,0,0,0-0.1v-4.5c0,0,0,0,0,0c0,0,0,0,0,0h0.6
						c0,0,0,0,0.1,0l1.4,3.3c0,0.1,0.1,0.2,0.1,0.3c0,0.1,0.1,0.1,0.1,0.2c0,0.1,0,0.1,0.1,0.2c0,0.1,0,0.1,0.1,0.2
						c0-0.2,0-0.4,0-0.5c0-0.1,0-0.3,0-0.3v-3.4c0,0,0-0.1,0-0.1c0,0,0,0,0.1,0h0.3c0,0,0.1,0,0.1,0c0,0,0,0,0,0.1V55.1z"/>
					<path id="XMLID_458_" d="M65.4,55.3h-0.6c-0.1,0-0.2-0.1-0.2-0.1l-1.4-3.4v3.3c0,0,0,0.1-0.1,0.2c0,0-0.1,0-0.2,0h-0.3
						c-0.1,0-0.1,0-0.2,0c-0.1-0.1-0.1-0.1-0.1-0.2v-4.5c0,0,0-0.1,0-0.1c0-0.1,0.1-0.1,0.2-0.1h0.6c0.1,0,0.2,0,0.2,0.1l1.4,3.3
						v-3.2c0-0.1,0-0.1,0.1-0.2c0.1,0,0.1,0,0.2,0h0.3c0,0,0.1,0,0.2,0c0.1,0.1,0.1,0.2,0.1,0.2v4.5c0,0,0,0.1,0,0.1
						C65.5,55.3,65.4,55.3,65.4,55.3z M64.8,55h0.5v-4.3l-0.2,0l0,3.3c0,0.1,0,0.2,0,0.3c0,0.1,0,0.3,0,0.5c0,0.1,0,0.1-0.1,0.2
						c-0.1,0-0.1,0-0.2-0.1c0-0.1-0.1-0.2-0.1-0.2c0-0.1,0-0.1-0.1-0.2c0-0.1,0-0.1-0.1-0.2c0-0.1-0.1-0.2-0.1-0.3l-1.4-3.3H63
						c0,0,0,0,0,0.1c0,0,0,0.1,0,0.1c0,0.1,0,0.1,0.1,0.2l0.1,0.2c0,0.1,0.1,0.1,0.1,0.2L64.8,55z M62.7,55l0.2,0l0-3.4
						c0-0.2,0-0.3,0-0.5c0-0.1,0-0.3,0-0.3c0-0.1,0-0.1,0.1-0.1h-0.2V55z"/>
				</g>
				<g id="XMLID_451_">
					<path id="XMLID_455_" d="M69.9,50.9C69.9,51,69.9,51,69.9,50.9C69.9,51,69.9,51,69.9,50.9L68.8,51v4.1c0,0,0,0.1,0,0.1
						c0,0,0,0-0.1,0h-0.3c0,0-0.1,0-0.1,0c0,0,0,0,0-0.1V51h-1c0,0-0.1,0-0.1,0c0,0,0,0,0-0.1v-0.3c0,0,0-0.1,0-0.1c0,0,0,0,0.1,0
						h2.5c0,0,0.1,0,0.1,0c0,0,0,0,0,0.1V50.9z"/>
					<path id="XMLID_452_" d="M68.7,55.3h-0.3c-0.1,0-0.1,0-0.2,0c-0.1-0.1-0.1-0.1-0.1-0.2v-3.9h-0.9c0,0-0.1,0-0.2,0
						c-0.1-0.1-0.1-0.2-0.1-0.2v-0.3c0,0,0-0.1,0.1-0.2c0.1,0,0.1,0,0.2,0h2.5c0,0,0.1,0,0.2,0c0.1,0.1,0.1,0.2,0.1,0.2v0.3
						c0,0,0,0.1-0.1,0.2c0,0-0.1,0-0.2,0H69v3.9c0,0,0,0.1-0.1,0.2C68.8,55.3,68.8,55.3,68.7,55.3z M68.5,55h0.2l0-4
						c0-0.1,0.1-0.1,0.1-0.1h1v-0.2l-2.4,0l0,0.2l1,0c0.1,0,0.1,0.1,0.1,0.1V55z"/>
				</g>
				<g id="XMLID_442_">
					<path id="XMLID_448_" d="M74.6,55.1C74.6,55.1,74.6,55.1,74.6,55.1C74.6,55.2,74.6,55.2,74.6,55.1l-0.4,0c0,0-0.1,0-0.1,0
						c0,0,0,0,0-0.1l-0.5-1.5h-1.4l-0.4,1.5c0,0,0,0.1,0,0.1c0,0,0,0-0.1,0h-0.4c0,0,0,0,0,0c0,0,0,0,0,0l1.3-4.5c0,0,0,0,0,0
						c0,0,0,0,0,0h0.5c0,0,0,0,0,0c0,0,0,0,0,0L74.6,55.1z M73.2,51.6c0-0.2-0.1-0.3-0.1-0.4c0-0.1,0-0.2-0.1-0.3
						c0,0.1,0,0.2-0.1,0.3c0,0.1-0.1,0.3-0.1,0.4l-0.4,1.5h1.2L73.2,51.6z"/>
					<path id="XMLID_443_" d="M74.6,55.3h-0.4c-0.1,0-0.1,0-0.1,0c-0.1,0-0.1-0.1-0.1-0.2l-0.4-1.4h-1.2L72,55.1c0,0,0,0.1-0.1,0.2
						c0,0-0.1,0-0.1,0h-0.4c0,0-0.1,0-0.1-0.1c0,0-0.1-0.1,0-0.2l1.3-4.5c0-0.1,0-0.1,0.1-0.1c0.1,0,0.1-0.1,0.1-0.1h0.5
						c0,0,0.1,0,0.1,0c0,0,0,0.1,0.1,0.1l1.3,4.5c0,0.1,0,0.2,0,0.2C74.7,55.3,74.6,55.3,74.6,55.3z M72.3,53.4h1.4
						c0.1,0,0.1,0,0.1,0.1l0.4,1.5l0.2,0l-1.2-4.3l-0.4,0L71.5,55h0.2l0.4-1.5C72.2,53.5,72.2,53.4,72.3,53.4z M73.6,53.3h-1.2
						c0,0-0.1,0-0.1-0.1c0,0,0-0.1,0-0.1l0.4-1.5c0-0.2,0.1-0.3,0.1-0.4c0-0.1,0-0.2,0.1-0.3c0-0.1,0.1-0.1,0.1-0.1
						c0.1,0,0.1,0.1,0.1,0.1c0,0.1,0,0.2,0.1,0.3c0,0.1,0.1,0.2,0.1,0.4l0,0l0.4,1.5c0,0,0,0.1,0,0.1C73.7,53.2,73.6,53.3,73.6,53.3
						z M72.6,53h0.8L73,51.7c0,0,0-0.1,0-0.1c0,0,0,0.1,0,0.1L72.6,53z"/>
				</g>
			</g>
		</g>
		<g id="XMLID_4_">
			<g id="XMLID_171_">
				<g id="XMLID_187_">
					<path id="XMLID_193_" d="M59.9,43.7c0.6-1.5,0.8-2.3,1.4-3.8c1.4,0.7,3.6,1,4.7,1.1c1.7,0.2,2.8-0.5,3-1.3
						c0.3-2-7.4-0.3-5.4-5.7c1.4-3.9,5.8-4.5,8.9-4.5c1.5,0,3,0.2,4.3,0.6c-0.5,1.6-0.8,2.4-1.3,4c-1-0.5-2.2-0.9-3.7-1
						c-0.8,0-2.3-0.1-2.6,0.8c-0.7,1.9,7.4-0.1,5.4,5.6c-1.4,4-5.6,4.9-8.6,4.6C63.5,44,62.3,43.9,59.9,43.7z"/>
					<path id="XMLID_192_" d="M48.1,39.9c-1.2,0-1.8,0-3,0c1.4-3.6,2.1-5.4,3.4-9c0.2-0.4,0.9-1.1,0.9-1.1c-2.9,0-2.9,0-5.8,0
						c-0.1,0.3-0.2,0.5-0.3,0.8c0,0.1,0,0.1-0.1,0.2c-1.7,4.5-2.5,6.7-4.2,11.2c-0.2,0.4-0.3,0.7-0.8,1.1c4.1-0.1,6.2,0,10.4,0.1
						c0.5-1.4,0.8-2.1,1.3-3.5C49.2,39.9,48.6,39.9,48.1,39.9z"/>
					<path id="XMLID_191_" d="M58.7,40.3c-1.2-0.1-1.8-0.1-3-0.2c1.4-3.7,2-5.5,3.4-9.3c0.2-0.5,0.9-1.1,0.9-1.1c-2.9,0-2.9,0-5.8,0
						c-0.1,0.3-0.2,0.5-0.3,0.8c0,0.1,0,0.1-0.1,0.2c-1.7,4.6-2.5,6.8-4.2,11.3c-0.2,0.4-0.3,0.7-0.8,1c4.1,0.1,6.2,0.2,10.3,0.5
						c0.5-1.4,0.8-2.1,1.3-3.6C59.8,40.3,59.3,40.4,58.7,40.3z"/>
					<path id="XMLID_188_" d="M37.7,30.9c0-0.4,0.5-1.1,0.5-1.1c-3.7,0-4.1,0-7.8,0c-3.7,5-5.5,7.5-9.2,12.9c-0.3,0.4-0.5,0.8-1,1.1
						c-0.2-0.3-0.1-0.6,0.1-1.1c1.9-5.4,2.8-8,4.7-13.1c0.2-0.5,0.6-1.2,0.6-1.2c-2.9,0-2.9,0-5.8,0c-0.2,0.4-0.2,0.6-0.4,1.1
						c0,0,0,0.1,0,0.1c-0.7,2-1,2.9-1.8,4.9c-1.5,0.1-2.2,0.1-3.7,0.2c0.7-2,1-3.1,1.7-5.1c0.2-0.5,0.6-1.2,0.6-1.2
						c-2.9,0-2.9,0-5.8,0c-2.1,6.1-3.1,9.3-5.1,16c-0.2,0.6-0.4,1-0.8,1.5c2.6-0.4,3.9-0.6,6.5-1c-0.2-0.5-0.2-0.7,0-1.2
						c0.6-2,1-2.9,1.6-4.8c1.5-0.1,2.2-0.2,3.7-0.3c-0.7,1.9-1,2.8-1.6,4.7c-0.2,0.5-0.2,0.7-0.8,1.3c5-0.6,7.4-0.8,12.4-1.1
						c0-0.4,0-0.7,0.3-1.1c0.5-0.8,0.7-1.2,1.2-1.9c1.8-0.1,2.7-0.1,4.5-0.2c-0.1,0.7-0.1,1.1-0.2,1.8c-0.1,0.4-0.2,0.7-0.5,1.1
						c2.6-0.1,3.9-0.1,6.5-0.2c-0.3-0.3-0.4-0.7-0.4-1.1C37.6,37.5,37.7,35.3,37.7,30.9z M32.6,37c-1.1,0-1.7,0-2.9,0.1
						c1.3-1.8,1.9-2.7,3.2-4.4C32.8,34.4,32.8,35.3,32.6,37z"/>
				</g>
				<g id="XMLID_179_">
					<path id="XMLID_186_" d="M66.9,43.9c-0.4,0-0.7,0-1.1-0.1c-2.1-0.2-3.3-0.3-5.4-0.5c0.4-1.1,0.7-1.8,1.1-3
						c1.5,0.6,3.5,0.9,4.5,1c0.2,0,0.4,0,0.6,0c1.5,0,2.6-0.7,2.7-1.6c0.2-1.1-1.1-1.4-2.4-1.7c-1.3-0.3-2.7-0.6-3.2-1.6
						c-0.3-0.6-0.3-1.3,0.1-2.4c1.3-3.5,5.3-4.3,8.3-4.3l0.2,0c1.3,0,2.6,0.2,3.8,0.5c-0.4,1.2-0.7,2-1.1,3.2
						c-1.1-0.5-2.3-0.8-3.5-0.8c-0.2,0-0.4,0-0.6,0c-0.5,0-2,0-2.4,1.1c-0.1,0.3,0,0.6,0,0.7c0.3,0.5,1.1,0.7,2.1,0.9
						c1.2,0.2,2.8,0.5,3.3,1.5c0.3,0.6,0.3,1.4-0.1,2.5C72.6,43.6,68.2,43.9,66.9,43.9L66.9,43.9z"/>
					<path id="XMLID_185_" d="M48.3,42.7c-2.8-0.1-4.6-0.1-6.7-0.1c-0.8,0-1.6,0-2.5,0c0.1-0.2,0.2-0.3,0.3-0.5l1.6-4.2
						c0.8-2.2,1.6-4.1,2.6-7c0-0.1,0.1-0.2,0.1-0.2l0.1-0.3l0.1-0.2c1.8,0,2.4,0,3.5,0l1.1,0c-0.1,0.2-0.3,0.3-0.3,0.5
						c-1.4,3.6-2,5.4-3.4,8.9l0,0.1l-0.2,0.5l0.5,0c1.2,0,1.8,0,3,0c0.4,0,0.7,0,1.1-0.1c-0.2,0.6-0.4,1.2-0.6,1.8L48.3,42.7
						L48.3,42.7z"/>
					<path id="XMLID_184_" d="M59,43.3c-3.7-0.3-5.7-0.4-9.2-0.5c0.1-0.2,0.2-0.4,0.3-0.5c1.7-4.5,2.6-6.8,4.2-11.3
						c0-0.1,0-0.1,0.1-0.2l0.2-0.6c1.5,0,2.2,0,3,0c0.4,0,0.9,0,1.6,0c-0.2,0.2-0.3,0.4-0.4,0.6c-1.4,3.8-2.1,5.7-3.4,9.3l-0.2,0.5
						l0.5,0c1.2,0.1,1.8,0.1,3,0.1l0.2,0c0.3,0,0.6,0,1-0.1C59.6,41.6,59.3,42.2,59,43.3L59,43.3z"/>
					<path id="XMLID_180_" d="M5.4,45.4c0.1-0.2,0.2-0.5,0.3-0.8c2-6.7,3.1-9.9,5-15.7l4.9,0c-0.1,0.2-0.2,0.5-0.3,0.7
						c-0.7,2-1.1,3-1.8,5.1l-0.2,0.5l0.6,0c1.5-0.1,2.2-0.1,3.7-0.2l0.2,0l0.1-0.2c0.7-2,1-3,1.7-4.9c0-0.1,0-0.1,0-0.1l0.2-0.6
						l0.1-0.2l4.9,0c-0.1,0.2-0.2,0.4-0.3,0.6c-1.9,5.1-2.8,7.7-4.7,13.2c-0.1,0.3-0.2,0.6-0.2,1c-1.6,0.1-3.1,0.3-5.1,0.5
						c0.1-0.2,0.2-0.3,0.2-0.5l0.1-0.2c0.7-1.9,1-2.9,1.6-4.7l0.2-0.6l-0.6,0c-1.5,0.1-2.2,0.2-3.7,0.3l-0.2,0l-0.1,0.2
						c-0.6,1.9-1,2.9-1.6,4.8c-0.1,0.4-0.2,0.7-0.1,1C8.5,45,7.3,45.1,5.4,45.4L5.4,45.4z M21.1,43.5c0.1-0.1,0.2-0.2,0.2-0.3
						l0.1-0.2c3.6-5.3,5.4-7.7,9.1-12.7l0.4,0c2.5,0,3.3,0,5.2,0l1.3,0c-0.1,0.2-0.2,0.4-0.2,0.7c0,4.4,0,6.7-0.1,11.1
						c0,0.2,0,0.5,0.1,0.7c-2,0-3.2,0.1-5.1,0.1c0.1-0.2,0.1-0.4,0.2-0.6l0.1-0.8l0.1-1.1l0-0.4l-0.4,0c-1.8,0.1-2.7,0.1-4.5,0.2
						l-0.2,0l-0.1,0.2c-0.5,0.8-0.7,1.1-1.2,1.9c-0.2,0.4-0.3,0.6-0.4,1C24,43.3,22.5,43.4,21.1,43.5L21.1,43.5z M33.5,31.4
						l-0.8,1.1c-1.3,1.8-1.9,2.6-3.2,4.4L29,37.5l0.8,0c1.1,0,1.7-0.1,2.8-0.1l0.3,0l0-0.3l0.4-4.1l0-0.3L33.5,31.4L33.5,31.4z"/>
				</g>
				<g id="XMLID_172_">
					<g id="XMLID_173_">
						<path id="XMLID_174_" d="M72.8,44c0.5,0,0.9,0.4,0.8,1c-0.1,0.6-0.5,1-1.1,1c-0.5,0-0.9-0.4-0.8-1C71.8,44.5,72.3,44,72.8,44z
							 M72.6,45.7c0.4,0,0.7-0.3,0.7-0.7c0-0.4-0.2-0.7-0.5-0.7c-0.4,0-0.7,0.3-0.7,0.7C72,45.4,72.2,45.7,72.6,45.7z M72.3,44.5
							l0.4,0c0.3,0,0.4,0.1,0.4,0.3c0,0.2-0.1,0.3-0.3,0.3l0.2,0.4l-0.2,0l-0.1-0.4l-0.1,0l-0.1,0.4l-0.2,0L72.3,44.5z M72.5,44.9
							l0.2,0c0.1,0,0.1,0,0.1-0.1c0-0.1-0.1-0.1-0.2-0.1l-0.1,0L72.5,44.9z"/>
					</g>
				</g>
			</g>
		</g>
	</g>
</g>
</svg>
